<?xml version="1.0" encoding="UTF-8"?>
<svg xmlns="http://www.w3.org/2000/svg" xmlns:xlink="http://www.w3.org/1999/xlink" width="2216" height="1479" viewBox="0 0 2216 1479">
<defs>
<g>
<g id="glyph-0-0">
<path d="M 2.421875 0 L 1.1875 0 L 1.1875 -10.640625 L 2.421875 -10.640625 Z M 2.421875 0 "/>
</g>
<g id="glyph-0-1">
<path d="M 7.71875 -3.765625 C 7.71875 -2.523438 7.398438 -1.5625 6.765625 -0.875 C 6.140625 -0.195312 5.289062 0.140625 4.21875 0.140625 C 3.550781 0.140625 2.957031 -0.0078125 2.4375 -0.3125 C 1.925781 -0.613281 1.519531 -1.054688 1.21875 -1.640625 C 0.914062 -2.222656 0.765625 -2.929688 0.765625 -3.765625 C 0.765625 -5.003906 1.078125 -5.957031 1.703125 -6.625 C 2.328125 -7.300781 3.175781 -7.640625 4.25 -7.640625 C 4.9375 -7.640625 5.535156 -7.488281 6.046875 -7.1875 C 6.566406 -6.882812 6.972656 -6.445312 7.265625 -5.875 C 7.566406 -5.300781 7.71875 -4.597656 7.71875 -3.765625 Z M 2.046875 -3.765625 C 2.046875 -2.878906 2.21875 -2.175781 2.5625 -1.65625 C 2.914062 -1.132812 3.472656 -0.875 4.234375 -0.875 C 4.992188 -0.875 5.550781 -1.132812 5.90625 -1.65625 C 6.257812 -2.175781 6.4375 -2.878906 6.4375 -3.765625 C 6.4375 -4.648438 6.257812 -5.34375 5.90625 -5.84375 C 5.550781 -6.351562 4.992188 -6.609375 4.234375 -6.609375 C 3.460938 -6.609375 2.90625 -6.351562 2.5625 -5.84375 C 2.21875 -5.34375 2.046875 -4.648438 2.046875 -3.765625 Z M 2.046875 -3.765625 "/>
</g>
<g id="glyph-0-2">
<path d="M 4.765625 -7.640625 C 5.679688 -7.640625 6.421875 -7.316406 6.984375 -6.671875 C 7.554688 -6.035156 7.84375 -5.066406 7.84375 -3.765625 C 7.84375 -2.484375 7.554688 -1.507812 6.984375 -0.84375 C 6.421875 -0.1875 5.675781 0.140625 4.75 0.140625 C 4.164062 0.140625 3.6875 0.03125 3.3125 -0.1875 C 2.9375 -0.40625 2.640625 -0.660156 2.421875 -0.953125 L 2.34375 -0.953125 C 2.351562 -0.796875 2.367188 -0.59375 2.390625 -0.34375 C 2.410156 -0.101562 2.421875 0.101562 2.421875 0.28125 L 2.421875 3.359375 L 1.1875 3.359375 L 1.1875 -7.5 L 2.203125 -7.5 L 2.359375 -6.484375 L 2.421875 -6.484375 C 2.648438 -6.804688 2.941406 -7.078125 3.296875 -7.296875 C 3.660156 -7.523438 4.148438 -7.640625 4.765625 -7.640625 Z M 4.53125 -6.609375 C 3.769531 -6.609375 3.234375 -6.390625 2.921875 -5.953125 C 2.609375 -5.523438 2.441406 -4.875 2.421875 -4 L 2.421875 -3.765625 C 2.421875 -2.835938 2.570312 -2.125 2.875 -1.625 C 3.175781 -1.125 3.738281 -0.875 4.5625 -0.875 C 5.019531 -0.875 5.394531 -1 5.6875 -1.25 C 5.976562 -1.507812 6.195312 -1.851562 6.34375 -2.28125 C 6.488281 -2.71875 6.5625 -3.21875 6.5625 -3.78125 C 6.5625 -4.632812 6.394531 -5.316406 6.0625 -5.828125 C 5.738281 -6.347656 5.226562 -6.609375 4.53125 -6.609375 Z M 4.53125 -6.609375 "/>
</g>
<g id="glyph-0-3">
<path d="M 4.6875 -7.640625 C 4.832031 -7.640625 4.984375 -7.632812 5.140625 -7.625 C 5.304688 -7.613281 5.453125 -7.59375 5.578125 -7.5625 L 5.421875 -6.421875 C 5.296875 -6.453125 5.160156 -6.476562 5.015625 -6.5 C 4.867188 -6.519531 4.734375 -6.53125 4.609375 -6.53125 C 4.222656 -6.53125 3.863281 -6.421875 3.53125 -6.203125 C 3.195312 -5.992188 2.925781 -5.703125 2.71875 -5.328125 C 2.519531 -4.953125 2.421875 -4.507812 2.421875 -4 L 2.421875 0 L 1.1875 0 L 1.1875 -7.5 L 2.203125 -7.5 L 2.34375 -6.125 L 2.390625 -6.125 C 2.640625 -6.539062 2.953125 -6.894531 3.328125 -7.1875 C 3.710938 -7.488281 4.164062 -7.640625 4.6875 -7.640625 Z M 4.6875 -7.640625 "/>
</g>
<g id="glyph-0-4">
<path d="M 6.078125 -2.078125 C 6.078125 -1.347656 5.804688 -0.796875 5.265625 -0.421875 C 4.722656 -0.046875 3.992188 0.140625 3.078125 0.140625 C 2.554688 0.140625 2.101562 0.0976562 1.71875 0.015625 C 1.34375 -0.0664062 1.015625 -0.1875 0.734375 -0.34375 L 0.734375 -1.453125 C 1.023438 -1.304688 1.382812 -1.171875 1.8125 -1.046875 C 2.238281 -0.921875 2.671875 -0.859375 3.109375 -0.859375 C 3.734375 -0.859375 4.1875 -0.957031 4.46875 -1.15625 C 4.75 -1.351562 4.890625 -1.617188 4.890625 -1.953125 C 4.890625 -2.140625 4.835938 -2.304688 4.734375 -2.453125 C 4.628906 -2.609375 4.441406 -2.757812 4.171875 -2.90625 C 3.910156 -3.0625 3.53125 -3.234375 3.03125 -3.421875 C 2.550781 -3.609375 2.140625 -3.789062 1.796875 -3.96875 C 1.453125 -4.15625 1.1875 -4.378906 1 -4.640625 C 0.8125 -4.910156 0.71875 -5.25 0.71875 -5.65625 C 0.71875 -6.289062 0.972656 -6.78125 1.484375 -7.125 C 2.003906 -7.46875 2.6875 -7.640625 3.53125 -7.640625 C 3.988281 -7.640625 4.414062 -7.59375 4.8125 -7.5 C 5.207031 -7.414062 5.578125 -7.296875 5.921875 -7.140625 L 5.5 -6.15625 C 5.1875 -6.289062 4.851562 -6.40625 4.5 -6.5 C 4.15625 -6.59375 3.800781 -6.640625 3.4375 -6.640625 C 2.9375 -6.640625 2.550781 -6.554688 2.28125 -6.390625 C 2.019531 -6.222656 1.890625 -6 1.890625 -5.71875 C 1.890625 -5.519531 1.945312 -5.347656 2.0625 -5.203125 C 2.1875 -5.054688 2.390625 -4.914062 2.671875 -4.78125 C 2.960938 -4.644531 3.347656 -4.484375 3.828125 -4.296875 C 4.296875 -4.117188 4.695312 -3.9375 5.03125 -3.75 C 5.375 -3.5625 5.632812 -3.332031 5.8125 -3.0625 C 5.988281 -2.800781 6.078125 -2.472656 6.078125 -2.078125 Z M 6.078125 -2.078125 "/>
</g>
<g id="glyph-0-5">
</g>
<g id="glyph-0-6">
<path d="M 1.015625 -6.75 C 1.015625 -7.101562 1.097656 -7.347656 1.265625 -7.484375 C 1.429688 -7.628906 1.628906 -7.703125 1.859375 -7.703125 C 2.097656 -7.703125 2.304688 -7.628906 2.484375 -7.484375 C 2.660156 -7.347656 2.75 -7.101562 2.75 -6.75 C 2.75 -6.414062 2.660156 -6.171875 2.484375 -6.015625 C 2.304688 -5.867188 2.097656 -5.796875 1.859375 -5.796875 C 1.628906 -5.796875 1.429688 -5.867188 1.265625 -6.015625 C 1.097656 -6.171875 1.015625 -6.414062 1.015625 -6.75 Z M 1.015625 -0.75 C 1.015625 -1.101562 1.097656 -1.347656 1.265625 -1.484375 C 1.429688 -1.617188 1.628906 -1.6875 1.859375 -1.6875 C 2.097656 -1.6875 2.304688 -1.617188 2.484375 -1.484375 C 2.660156 -1.347656 2.75 -1.101562 2.75 -0.75 C 2.75 -0.414062 2.660156 -0.171875 2.484375 -0.015625 C 2.304688 0.128906 2.097656 0.203125 1.859375 0.203125 C 1.628906 0.203125 1.429688 0.128906 1.265625 -0.015625 C 1.097656 -0.171875 1.015625 -0.414062 1.015625 -0.75 Z M 1.015625 -0.75 "/>
</g>
<g id="glyph-0-7">
<path d="M 4.109375 -10 C 5.359375 -10 6.273438 -9.757812 6.859375 -9.28125 C 7.453125 -8.8125 7.75 -8.101562 7.75 -7.15625 C 7.75 -6.625 7.648438 -6.179688 7.453125 -5.828125 C 7.265625 -5.472656 7.019531 -5.1875 6.71875 -4.96875 C 6.414062 -4.757812 6.09375 -4.597656 5.75 -4.484375 L 8.5 0 L 7.03125 0 L 4.609375 -4.125 L 2.625 -4.125 L 2.625 0 L 1.359375 0 L 1.359375 -10 Z M 4.046875 -8.90625 L 2.625 -8.90625 L 2.625 -5.1875 L 4.109375 -5.1875 C 4.921875 -5.1875 5.515625 -5.347656 5.890625 -5.671875 C 6.265625 -5.992188 6.453125 -6.46875 6.453125 -7.09375 C 6.453125 -7.75 6.253906 -8.210938 5.859375 -8.484375 C 5.472656 -8.765625 4.867188 -8.90625 4.046875 -8.90625 Z M 4.046875 -8.90625 "/>
</g>
<g id="glyph-0-8">
<path d="M 4.03125 -7.625 C 4.945312 -7.625 5.625 -7.421875 6.0625 -7.015625 C 6.5 -6.617188 6.71875 -5.984375 6.71875 -5.109375 L 6.71875 0 L 5.828125 0 L 5.59375 -1.0625 L 5.53125 -1.0625 C 5.207031 -0.65625 4.863281 -0.351562 4.5 -0.15625 C 4.144531 0.0390625 3.648438 0.140625 3.015625 0.140625 C 2.328125 0.140625 1.757812 -0.0351562 1.3125 -0.390625 C 0.863281 -0.753906 0.640625 -1.320312 0.640625 -2.09375 C 0.640625 -2.832031 0.929688 -3.40625 1.515625 -3.8125 C 2.109375 -4.21875 3.015625 -4.441406 4.234375 -4.484375 L 5.515625 -4.515625 L 5.515625 -4.96875 C 5.515625 -5.59375 5.378906 -6.023438 5.109375 -6.265625 C 4.835938 -6.515625 4.457031 -6.640625 3.96875 -6.640625 C 3.570312 -6.640625 3.195312 -6.578125 2.84375 -6.453125 C 2.488281 -6.335938 2.15625 -6.207031 1.84375 -6.0625 L 1.46875 -6.984375 C 1.789062 -7.160156 2.175781 -7.3125 2.625 -7.4375 C 3.070312 -7.5625 3.539062 -7.625 4.03125 -7.625 Z M 4.390625 -3.625 C 3.460938 -3.582031 2.816406 -3.429688 2.453125 -3.171875 C 2.097656 -2.910156 1.921875 -2.546875 1.921875 -2.078125 C 1.921875 -1.648438 2.046875 -1.335938 2.296875 -1.140625 C 2.554688 -0.953125 2.890625 -0.859375 3.296875 -0.859375 C 3.921875 -0.859375 4.441406 -1.03125 4.859375 -1.375 C 5.285156 -1.726562 5.5 -2.269531 5.5 -3 L 5.5 -3.671875 Z M 4.390625 -3.625 "/>
</g>
<g id="glyph-0-9">
<path d="M 3.84375 0.140625 C 2.914062 0.140625 2.171875 -0.179688 1.609375 -0.828125 C 1.046875 -1.484375 0.765625 -2.453125 0.765625 -3.734375 C 0.765625 -5.023438 1.046875 -6 1.609375 -6.65625 C 2.179688 -7.3125 2.929688 -7.640625 3.859375 -7.640625 C 4.441406 -7.640625 4.914062 -7.53125 5.28125 -7.3125 C 5.65625 -7.101562 5.957031 -6.84375 6.1875 -6.53125 L 6.265625 -6.53125 C 6.265625 -6.65625 6.25 -6.835938 6.21875 -7.078125 C 6.195312 -7.316406 6.1875 -7.503906 6.1875 -7.640625 L 6.1875 -10.640625 L 7.421875 -10.640625 L 7.421875 0 L 6.421875 0 L 6.25 -1.015625 L 6.1875 -1.015625 C 5.96875 -0.691406 5.671875 -0.414062 5.296875 -0.1875 C 4.921875 0.03125 4.4375 0.140625 3.84375 0.140625 Z M 4.046875 -0.875 C 4.835938 -0.875 5.394531 -1.09375 5.71875 -1.53125 C 6.039062 -1.96875 6.203125 -2.625 6.203125 -3.5 L 6.203125 -3.71875 C 6.203125 -4.65625 6.046875 -5.375 5.734375 -5.875 C 5.429688 -6.375 4.863281 -6.625 4.03125 -6.625 C 3.363281 -6.625 2.863281 -6.359375 2.53125 -5.828125 C 2.207031 -5.304688 2.046875 -4.597656 2.046875 -3.703125 C 2.046875 -2.804688 2.207031 -2.109375 2.53125 -1.609375 C 2.863281 -1.117188 3.367188 -0.875 4.046875 -0.875 Z M 4.046875 -0.875 "/>
</g>
<g id="glyph-0-10">
<path d="M 7.03125 -2.671875 C 7.03125 -1.785156 6.707031 -1.09375 6.0625 -0.59375 C 5.414062 -0.101562 4.546875 0.140625 3.453125 0.140625 C 2.898438 0.140625 2.382812 0.0976562 1.90625 0.015625 C 1.425781 -0.0664062 1.03125 -0.1875 0.71875 -0.34375 L 0.71875 -1.546875 C 1.050781 -1.390625 1.46875 -1.25 1.96875 -1.125 C 2.46875 -1.007812 2.984375 -0.953125 3.515625 -0.953125 C 4.265625 -0.953125 4.828125 -1.09375 5.203125 -1.375 C 5.578125 -1.664062 5.765625 -2.0625 5.765625 -2.5625 C 5.765625 -2.882812 5.691406 -3.15625 5.546875 -3.375 C 5.410156 -3.601562 5.171875 -3.8125 4.828125 -4 C 4.492188 -4.195312 4.023438 -4.40625 3.421875 -4.625 C 2.566406 -4.925781 1.921875 -5.300781 1.484375 -5.75 C 1.054688 -6.195312 0.84375 -6.8125 0.84375 -7.59375 C 0.84375 -8.125 0.976562 -8.578125 1.25 -8.953125 C 1.519531 -9.328125 1.894531 -9.617188 2.375 -9.828125 C 2.851562 -10.035156 3.40625 -10.140625 4.03125 -10.140625 C 4.582031 -10.140625 5.085938 -10.085938 5.546875 -9.984375 C 6.003906 -9.878906 6.421875 -9.742188 6.796875 -9.578125 L 6.390625 -8.5 C 6.046875 -8.644531 5.671875 -8.769531 5.265625 -8.875 C 4.859375 -8.976562 4.4375 -9.03125 4 -9.03125 C 3.375 -9.03125 2.898438 -8.894531 2.578125 -8.625 C 2.265625 -8.363281 2.109375 -8.015625 2.109375 -7.578125 C 2.109375 -7.234375 2.175781 -6.945312 2.3125 -6.71875 C 2.457031 -6.5 2.6875 -6.300781 3 -6.125 C 3.320312 -5.945312 3.753906 -5.757812 4.296875 -5.5625 C 4.890625 -5.34375 5.382812 -5.109375 5.78125 -4.859375 C 6.1875 -4.617188 6.492188 -4.320312 6.703125 -3.96875 C 6.921875 -3.625 7.03125 -3.191406 7.03125 -2.671875 Z M 7.03125 -2.671875 "/>
</g>
<g id="glyph-0-11">
<path d="M 4.09375 -7.640625 C 4.726562 -7.640625 5.273438 -7.5 5.734375 -7.21875 C 6.203125 -6.9375 6.5625 -6.539062 6.8125 -6.03125 C 7.0625 -5.53125 7.1875 -4.9375 7.1875 -4.25 L 7.1875 -3.515625 L 2.046875 -3.515625 C 2.066406 -2.660156 2.28125 -2.007812 2.6875 -1.5625 C 3.101562 -1.125 3.6875 -0.90625 4.4375 -0.90625 C 4.914062 -0.90625 5.335938 -0.945312 5.703125 -1.03125 C 6.078125 -1.125 6.457031 -1.253906 6.84375 -1.421875 L 6.84375 -0.34375 C 6.457031 -0.175781 6.078125 -0.0546875 5.703125 0.015625 C 5.335938 0.0976562 4.894531 0.140625 4.375 0.140625 C 3.664062 0.140625 3.039062 -0.00390625 2.5 -0.296875 C 1.957031 -0.585938 1.53125 -1.019531 1.21875 -1.59375 C 0.914062 -2.164062 0.765625 -2.867188 0.765625 -3.703125 C 0.765625 -4.515625 0.898438 -5.210938 1.171875 -5.796875 C 1.453125 -6.390625 1.84375 -6.84375 2.34375 -7.15625 C 2.84375 -7.476562 3.425781 -7.640625 4.09375 -7.640625 Z M 4.078125 -6.640625 C 3.484375 -6.640625 3.015625 -6.445312 2.671875 -6.0625 C 2.335938 -5.6875 2.140625 -5.164062 2.078125 -4.5 L 5.890625 -4.5 C 5.878906 -5.132812 5.726562 -5.648438 5.4375 -6.046875 C 5.15625 -6.441406 4.703125 -6.640625 4.078125 -6.640625 Z M 4.078125 -6.640625 "/>
</g>
<g id="glyph-0-12">
<path d="M 3.84375 -7.640625 C 4.34375 -7.640625 4.789062 -7.546875 5.1875 -7.359375 C 5.582031 -7.171875 5.921875 -6.890625 6.203125 -6.515625 L 6.265625 -6.515625 L 6.4375 -7.5 L 7.421875 -7.5 L 7.421875 0.125 C 7.421875 1.195312 7.144531 2.003906 6.59375 2.546875 C 6.050781 3.085938 5.207031 3.359375 4.0625 3.359375 C 2.957031 3.359375 2.054688 3.203125 1.359375 2.890625 L 1.359375 1.75 C 2.097656 2.144531 3.019531 2.34375 4.125 2.34375 C 4.769531 2.34375 5.273438 2.148438 5.640625 1.765625 C 6.015625 1.390625 6.203125 0.875 6.203125 0.21875 L 6.203125 -0.0625 C 6.203125 -0.175781 6.207031 -0.335938 6.21875 -0.546875 C 6.226562 -0.765625 6.238281 -0.914062 6.25 -1 L 6.1875 -1 C 5.6875 -0.238281 4.910156 0.140625 3.859375 0.140625 C 2.890625 0.140625 2.128906 -0.195312 1.578125 -0.875 C 1.035156 -1.5625 0.765625 -2.515625 0.765625 -3.734375 C 0.765625 -4.929688 1.035156 -5.878906 1.578125 -6.578125 C 2.128906 -7.285156 2.882812 -7.640625 3.84375 -7.640625 Z M 4.015625 -6.609375 C 3.390625 -6.609375 2.90625 -6.359375 2.5625 -5.859375 C 2.21875 -5.359375 2.046875 -4.644531 2.046875 -3.71875 C 2.046875 -2.800781 2.210938 -2.097656 2.546875 -1.609375 C 2.890625 -1.117188 3.390625 -0.875 4.046875 -0.875 C 4.804688 -0.875 5.359375 -1.078125 5.703125 -1.484375 C 6.046875 -1.890625 6.21875 -2.539062 6.21875 -3.4375 L 6.21875 -3.734375 C 6.21875 -4.765625 6.039062 -5.5 5.6875 -5.9375 C 5.332031 -6.382812 4.773438 -6.609375 4.015625 -6.609375 Z M 4.015625 -6.609375 "/>
</g>
<g id="glyph-0-13">
<path d="M 9.421875 -7.640625 C 10.273438 -7.640625 10.910156 -7.421875 11.328125 -6.984375 C 11.742188 -6.554688 11.953125 -5.859375 11.953125 -4.890625 L 11.953125 0 L 10.734375 0 L 10.734375 -4.828125 C 10.734375 -6.015625 10.226562 -6.609375 9.21875 -6.609375 C 8.488281 -6.609375 7.96875 -6.394531 7.65625 -5.96875 C 7.34375 -5.550781 7.1875 -4.941406 7.1875 -4.140625 L 7.1875 0 L 5.96875 0 L 5.96875 -4.828125 C 5.96875 -6.015625 5.453125 -6.609375 4.421875 -6.609375 C 3.671875 -6.609375 3.148438 -6.375 2.859375 -5.90625 C 2.566406 -5.4375 2.421875 -4.765625 2.421875 -3.890625 L 2.421875 0 L 1.1875 0 L 1.1875 -7.5 L 2.1875 -7.5 L 2.359375 -6.484375 L 2.4375 -6.484375 C 2.664062 -6.867188 2.976562 -7.15625 3.375 -7.34375 C 3.769531 -7.539062 4.191406 -7.640625 4.640625 -7.640625 C 5.816406 -7.640625 6.582031 -7.222656 6.9375 -6.390625 L 7.015625 -6.390625 C 7.265625 -6.816406 7.601562 -7.128906 8.03125 -7.328125 C 8.46875 -7.535156 8.929688 -7.640625 9.421875 -7.640625 Z M 9.421875 -7.640625 "/>
</g>
<g id="glyph-0-14">
<path d="M 4.796875 -7.640625 C 5.691406 -7.640625 6.367188 -7.421875 6.828125 -6.984375 C 7.285156 -6.554688 7.515625 -5.859375 7.515625 -4.890625 L 7.515625 0 L 6.296875 0 L 6.296875 -4.796875 C 6.296875 -6.003906 5.738281 -6.609375 4.625 -6.609375 C 3.789062 -6.609375 3.210938 -6.375 2.890625 -5.90625 C 2.578125 -5.4375 2.421875 -4.765625 2.421875 -3.890625 L 2.421875 0 L 1.1875 0 L 1.1875 -7.5 L 2.1875 -7.5 L 2.359375 -6.484375 L 2.4375 -6.484375 C 2.675781 -6.867188 3.007812 -7.15625 3.4375 -7.34375 C 3.875 -7.539062 4.328125 -7.640625 4.796875 -7.640625 Z M 4.796875 -7.640625 "/>
</g>
<g id="glyph-0-15">
<path d="M 3.703125 -0.875 C 3.878906 -0.875 4.066406 -0.890625 4.265625 -0.921875 C 4.460938 -0.953125 4.625 -0.984375 4.75 -1.015625 L 4.75 -0.078125 C 4.613281 -0.015625 4.425781 0.0351562 4.1875 0.078125 C 3.945312 0.117188 3.710938 0.140625 3.484375 0.140625 C 3.085938 0.140625 2.722656 0.0703125 2.390625 -0.0625 C 2.066406 -0.195312 1.800781 -0.429688 1.59375 -0.765625 C 1.382812 -1.109375 1.28125 -1.582031 1.28125 -2.1875 L 1.28125 -6.546875 L 0.21875 -6.546875 L 0.21875 -7.140625 L 1.296875 -7.625 L 1.796875 -9.21875 L 2.515625 -9.21875 L 2.515625 -7.5 L 4.6875 -7.5 L 4.6875 -6.546875 L 2.515625 -6.546875 L 2.515625 -2.21875 C 2.515625 -1.757812 2.625 -1.421875 2.84375 -1.203125 C 3.0625 -0.984375 3.347656 -0.875 3.703125 -0.875 Z M 3.703125 -0.875 "/>
</g>
<g id="glyph-0-16">
<path d="M 9.28125 0 L 7.8125 0 L 2.46875 -8.296875 L 2.40625 -8.296875 C 2.425781 -7.972656 2.445312 -7.566406 2.46875 -7.078125 C 2.5 -6.597656 2.515625 -6.101562 2.515625 -5.59375 L 2.515625 0 L 1.359375 0 L 1.359375 -10 L 2.8125 -10 L 8.140625 -1.71875 L 8.203125 -1.71875 C 8.191406 -1.875 8.175781 -2.097656 8.15625 -2.390625 C 8.144531 -2.691406 8.132812 -3.019531 8.125 -3.375 C 8.113281 -3.726562 8.109375 -4.054688 8.109375 -4.359375 L 8.109375 -10 L 9.28125 -10 Z M 9.28125 0 "/>
</g>
<g id="glyph-0-17">
<path d="M 6.03125 -4.234375 C 5.914062 -4.617188 5.8125 -4.992188 5.71875 -5.359375 C 5.632812 -5.734375 5.566406 -6.023438 5.515625 -6.234375 L 5.453125 -6.234375 C 5.421875 -6.023438 5.363281 -5.734375 5.28125 -5.359375 C 5.195312 -4.992188 5.085938 -4.617188 4.953125 -4.234375 L 3.609375 -0.015625 L 2.21875 -0.015625 L 0.15625 -7.515625 L 1.421875 -7.515625 L 2.46875 -3.515625 C 2.570312 -3.109375 2.664062 -2.703125 2.75 -2.296875 C 2.84375 -1.890625 2.910156 -1.550781 2.953125 -1.28125 L 3.015625 -1.28125 C 3.046875 -1.4375 3.085938 -1.628906 3.140625 -1.859375 C 3.191406 -2.097656 3.25 -2.34375 3.3125 -2.59375 C 3.382812 -2.851562 3.453125 -3.085938 3.515625 -3.296875 L 4.84375 -7.515625 L 6.1875 -7.515625 L 7.46875 -3.296875 C 7.570312 -2.972656 7.671875 -2.625 7.765625 -2.25 C 7.867188 -1.875 7.941406 -1.550781 7.984375 -1.28125 L 8.03125 -1.28125 C 8.0625 -1.519531 8.125 -1.84375 8.21875 -2.25 C 8.320312 -2.664062 8.429688 -3.085938 8.546875 -3.515625 L 9.59375 -7.515625 L 10.84375 -7.515625 L 8.765625 -0.015625 L 7.328125 -0.015625 Z M 6.03125 -4.234375 "/>
</g>
<g id="glyph-0-18">
<path d="M 2.40625 -5.078125 C 2.40625 -4.929688 2.394531 -4.734375 2.375 -4.484375 C 2.363281 -4.242188 2.359375 -4.035156 2.359375 -3.859375 L 2.40625 -3.859375 C 2.457031 -3.929688 2.539062 -4.035156 2.65625 -4.171875 C 2.769531 -4.316406 2.882812 -4.460938 3 -4.609375 C 3.113281 -4.753906 3.210938 -4.875 3.296875 -4.96875 L 5.703125 -7.5 L 7.140625 -7.5 L 4.109375 -4.296875 L 7.34375 0 L 5.859375 0 L 3.265625 -3.5 L 2.40625 -2.765625 L 2.40625 0 L 1.1875 0 L 1.1875 -10.640625 L 2.40625 -10.640625 Z M 2.40625 -5.078125 "/>
</g>
<g id="glyph-0-19">
<path d="M 1.09375 -9.53125 C 1.09375 -9.800781 1.160156 -10 1.296875 -10.125 C 1.441406 -10.25 1.613281 -10.3125 1.8125 -10.3125 C 2 -10.3125 2.164062 -10.25 2.3125 -10.125 C 2.457031 -10 2.53125 -9.800781 2.53125 -9.53125 C 2.53125 -9.269531 2.457031 -9.070312 2.3125 -8.9375 C 2.164062 -8.8125 2 -8.75 1.8125 -8.75 C 1.613281 -8.75 1.441406 -8.8125 1.296875 -8.9375 C 1.160156 -9.070312 1.09375 -9.269531 1.09375 -9.53125 Z M 0.3125 3.359375 C 0.0703125 3.359375 -0.132812 3.34375 -0.3125 3.3125 C -0.488281 3.28125 -0.640625 3.238281 -0.765625 3.1875 L -0.765625 2.203125 C -0.628906 2.234375 -0.484375 2.265625 -0.328125 2.296875 C -0.179688 2.328125 -0.0195312 2.34375 0.15625 2.34375 C 0.457031 2.34375 0.703125 2.257812 0.890625 2.09375 C 1.085938 1.925781 1.1875 1.613281 1.1875 1.15625 L 1.1875 -7.5 L 2.421875 -7.5 L 2.421875 1.125 C 2.421875 1.820312 2.25 2.367188 1.90625 2.765625 C 1.570312 3.160156 1.039062 3.359375 0.3125 3.359375 Z M 0.3125 3.359375 "/>
</g>
<g id="glyph-0-20">
<path d="M -0.0625 2.65625 C -0.28125 2.65625 -0.472656 2.640625 -0.640625 2.609375 C -0.804688 2.578125 -0.957031 2.535156 -1.09375 2.484375 L -1.09375 1.40625 C -0.945312 1.445312 -0.785156 1.476562 -0.609375 1.5 C -0.441406 1.53125 -0.265625 1.546875 -0.078125 1.546875 C 0.148438 1.546875 0.367188 1.5 0.578125 1.40625 C 0.785156 1.320312 0.953125 1.160156 1.078125 0.921875 C 1.210938 0.691406 1.28125 0.363281 1.28125 -0.0625 L 1.28125 -10 L 2.546875 -10 L 2.546875 -0.15625 C 2.546875 0.800781 2.304688 1.507812 1.828125 1.96875 C 1.359375 2.425781 0.726562 2.65625 -0.0625 2.65625 Z M -0.0625 2.65625 "/>
</g>
<g id="glyph-0-21">
<path d="M 7.46875 -7.5 L 7.46875 0 L 6.453125 0 L 6.265625 -1 L 6.21875 -1 C 5.976562 -0.601562 5.640625 -0.3125 5.203125 -0.125 C 4.773438 0.0507812 4.320312 0.140625 3.84375 0.140625 C 2.9375 0.140625 2.253906 -0.0703125 1.796875 -0.5 C 1.335938 -0.9375 1.109375 -1.632812 1.109375 -2.59375 L 1.109375 -7.5 L 2.359375 -7.5 L 2.359375 -2.671875 C 2.359375 -1.472656 2.910156 -0.875 4.015625 -0.875 C 4.847656 -0.875 5.425781 -1.109375 5.75 -1.578125 C 6.070312 -2.046875 6.234375 -2.71875 6.234375 -3.59375 L 6.234375 -7.5 Z M 7.46875 -7.5 "/>
</g>
<g id="glyph-0-22">
<path d="M 4.203125 0.140625 C 3.535156 0.140625 2.941406 0.00390625 2.421875 -0.265625 C 1.910156 -0.535156 1.503906 -0.953125 1.203125 -1.515625 C 0.910156 -2.085938 0.765625 -2.816406 0.765625 -3.703125 C 0.765625 -4.628906 0.914062 -5.378906 1.21875 -5.953125 C 1.53125 -6.535156 1.953125 -6.960938 2.484375 -7.234375 C 3.015625 -7.503906 3.613281 -7.640625 4.28125 -7.640625 C 4.664062 -7.640625 5.035156 -7.597656 5.390625 -7.515625 C 5.742188 -7.441406 6.035156 -7.347656 6.265625 -7.234375 L 5.875 -6.21875 C 5.65625 -6.300781 5.394531 -6.378906 5.09375 -6.453125 C 4.789062 -6.523438 4.507812 -6.5625 4.25 -6.5625 C 2.78125 -6.5625 2.046875 -5.613281 2.046875 -3.71875 C 2.046875 -2.8125 2.222656 -2.117188 2.578125 -1.640625 C 2.941406 -1.160156 3.476562 -0.921875 4.1875 -0.921875 C 4.59375 -0.921875 4.953125 -0.960938 5.265625 -1.046875 C 5.578125 -1.128906 5.863281 -1.234375 6.125 -1.359375 L 6.125 -0.265625 C 5.875 -0.128906 5.597656 -0.03125 5.296875 0.03125 C 4.992188 0.101562 4.628906 0.140625 4.203125 0.140625 Z M 4.203125 0.140625 "/>
</g>
<g id="glyph-0-23">
<path d="M 1.8125 -10.3125 C 2 -10.3125 2.164062 -10.25 2.3125 -10.125 C 2.457031 -10 2.53125 -9.800781 2.53125 -9.53125 C 2.53125 -9.269531 2.457031 -9.070312 2.3125 -8.9375 C 2.164062 -8.8125 2 -8.75 1.8125 -8.75 C 1.613281 -8.75 1.441406 -8.8125 1.296875 -8.9375 C 1.160156 -9.070312 1.09375 -9.269531 1.09375 -9.53125 C 1.09375 -9.800781 1.160156 -10 1.296875 -10.125 C 1.441406 -10.25 1.613281 -10.3125 1.8125 -10.3125 Z M 2.421875 -7.5 L 2.421875 0 L 1.1875 0 L 1.1875 -7.5 Z M 2.421875 -7.5 "/>
</g>
<g id="glyph-0-24">
<path d="M 4.25 2.21875 L 1.125 2.21875 L 1.125 -10 L 4.25 -10 L 4.25 -8.984375 L 2.328125 -8.984375 L 2.328125 1.203125 L 4.25 1.203125 Z M 4.25 2.21875 "/>
</g>
<g id="glyph-0-25">
<path d="M 0.34375 1.203125 L 2.28125 1.203125 L 2.28125 -8.984375 L 0.34375 -8.984375 L 0.34375 -10 L 3.484375 -10 L 3.484375 2.21875 L 0.34375 2.21875 Z M 0.34375 1.203125 "/>
</g>
<g id="glyph-0-26">
<path d="M 1.359375 0 L 1.359375 -10 L 2.625 -10 L 2.625 -1.125 L 6.984375 -1.125 L 6.984375 0 Z M 1.359375 0 "/>
</g>
<g id="glyph-0-27">
<path d="M 2.421875 -8.046875 C 2.421875 -7.734375 2.410156 -7.4375 2.390625 -7.15625 C 2.378906 -6.882812 2.367188 -6.671875 2.359375 -6.515625 L 2.421875 -6.515625 C 2.640625 -6.828125 2.929688 -7.085938 3.296875 -7.296875 C 3.671875 -7.515625 4.15625 -7.625 4.75 -7.625 C 5.675781 -7.625 6.421875 -7.300781 6.984375 -6.65625 C 7.554688 -6.007812 7.84375 -5.039062 7.84375 -3.75 C 7.84375 -2.457031 7.554688 -1.484375 6.984375 -0.828125 C 6.410156 -0.179688 5.664062 0.140625 4.75 0.140625 C 4.15625 0.140625 3.671875 0.0351562 3.296875 -0.171875 C 2.929688 -0.390625 2.640625 -0.648438 2.421875 -0.953125 L 2.328125 -0.953125 L 2.078125 0 L 1.1875 0 L 1.1875 -10.640625 L 2.421875 -10.640625 Z M 4.53125 -6.609375 C 3.738281 -6.609375 3.1875 -6.378906 2.875 -5.921875 C 2.570312 -5.460938 2.421875 -4.753906 2.421875 -3.796875 L 2.421875 -3.734375 C 2.421875 -2.816406 2.570312 -2.109375 2.875 -1.609375 C 3.175781 -1.117188 3.738281 -0.875 4.5625 -0.875 C 5.238281 -0.875 5.738281 -1.117188 6.0625 -1.609375 C 6.394531 -2.109375 6.5625 -2.828125 6.5625 -3.765625 C 6.5625 -5.660156 5.882812 -6.609375 4.53125 -6.609375 Z M 4.53125 -6.609375 "/>
</g>
<g id="glyph-0-28">
<path d="M 4.96875 0 L 3.765625 0 L 3.765625 -6.984375 C 3.765625 -7.390625 3.769531 -7.710938 3.78125 -7.953125 C 3.789062 -8.191406 3.804688 -8.441406 3.828125 -8.703125 C 3.671875 -8.554688 3.53125 -8.429688 3.40625 -8.328125 C 3.289062 -8.222656 3.140625 -8.09375 2.953125 -7.9375 L 1.890625 -7.0625 L 1.25 -7.890625 L 3.953125 -10 L 4.96875 -10 Z M 4.96875 0 "/>
</g>
<g id="glyph-0-29">
<path d="M 4.21875 -10 C 5.46875 -10 6.410156 -9.8125 7.046875 -9.4375 C 7.691406 -9.070312 8.015625 -8.429688 8.015625 -7.515625 C 8.015625 -6.929688 7.847656 -6.441406 7.515625 -6.046875 C 7.191406 -5.660156 6.722656 -5.414062 6.109375 -5.3125 L 6.109375 -5.234375 C 6.523438 -5.171875 6.898438 -5.050781 7.234375 -4.875 C 7.578125 -4.695312 7.847656 -4.441406 8.046875 -4.109375 C 8.242188 -3.785156 8.34375 -3.363281 8.34375 -2.84375 C 8.34375 -1.9375 8.03125 -1.234375 7.40625 -0.734375 C 6.789062 -0.242188 5.945312 0 4.875 0 L 1.359375 0 L 1.359375 -10 Z M 4.46875 -5.734375 C 5.320312 -5.734375 5.90625 -5.867188 6.21875 -6.140625 C 6.539062 -6.421875 6.703125 -6.832031 6.703125 -7.375 C 6.703125 -7.925781 6.507812 -8.320312 6.125 -8.5625 C 5.738281 -8.800781 5.117188 -8.921875 4.265625 -8.921875 L 2.625 -8.921875 L 2.625 -5.734375 Z M 2.625 -4.6875 L 2.625 -1.0625 L 4.640625 -1.0625 C 5.523438 -1.0625 6.140625 -1.234375 6.484375 -1.578125 C 6.828125 -1.921875 7 -2.375 7 -2.9375 C 7 -3.457031 6.816406 -3.878906 6.453125 -4.203125 C 6.097656 -4.523438 5.457031 -4.6875 4.53125 -4.6875 Z M 2.625 -4.6875 "/>
</g>
<g id="glyph-0-30">
<path d="M 7.28125 0 L 0.671875 0 L 0.671875 -1.015625 L 3.296875 -3.671875 C 3.796875 -4.171875 4.21875 -4.613281 4.5625 -5 C 4.90625 -5.394531 5.164062 -5.78125 5.34375 -6.15625 C 5.519531 -6.539062 5.609375 -6.957031 5.609375 -7.40625 C 5.609375 -7.957031 5.445312 -8.375 5.125 -8.65625 C 4.800781 -8.945312 4.375 -9.09375 3.84375 -9.09375 C 3.363281 -9.09375 2.9375 -9.003906 2.5625 -8.828125 C 2.195312 -8.660156 1.820312 -8.429688 1.4375 -8.140625 L 0.78125 -8.953125 C 1.175781 -9.285156 1.625 -9.566406 2.125 -9.796875 C 2.632812 -10.023438 3.207031 -10.140625 3.84375 -10.140625 C 4.78125 -10.140625 5.519531 -9.898438 6.0625 -9.421875 C 6.601562 -8.953125 6.875 -8.300781 6.875 -7.46875 C 6.875 -6.945312 6.765625 -6.457031 6.546875 -6 C 6.335938 -5.539062 6.039062 -5.085938 5.65625 -4.640625 C 5.269531 -4.203125 4.820312 -3.734375 4.3125 -3.234375 L 2.21875 -1.171875 L 2.21875 -1.125 L 7.28125 -1.125 Z M 7.28125 0 "/>
</g>
<g id="glyph-0-31">
<path d="M 6.1875 0.15625 C 6.1875 -0.0078125 6.191406 -0.203125 6.203125 -0.421875 C 6.210938 -0.648438 6.234375 -0.847656 6.265625 -1.015625 L 6.171875 -1.015625 C 5.960938 -0.691406 5.664062 -0.414062 5.28125 -0.1875 C 4.90625 0.03125 4.421875 0.140625 3.828125 0.140625 C 2.921875 0.140625 2.179688 -0.179688 1.609375 -0.828125 C 1.046875 -1.484375 0.765625 -2.453125 0.765625 -3.734375 C 0.765625 -5.023438 1.050781 -6 1.625 -6.65625 C 2.195312 -7.3125 2.941406 -7.640625 3.859375 -7.640625 C 4.453125 -7.640625 4.929688 -7.523438 5.296875 -7.296875 C 5.671875 -7.078125 5.972656 -6.804688 6.203125 -6.484375 L 6.265625 -6.484375 L 6.4375 -7.5 L 7.421875 -7.5 L 7.421875 3.359375 L 6.1875 3.359375 Z M 4.0625 -0.875 C 4.832031 -0.875 5.378906 -1.085938 5.703125 -1.515625 C 6.023438 -1.941406 6.191406 -2.59375 6.203125 -3.46875 L 6.203125 -3.71875 C 6.203125 -4.675781 6.039062 -5.398438 5.71875 -5.890625 C 5.40625 -6.378906 4.84375 -6.625 4.03125 -6.625 C 3.363281 -6.625 2.863281 -6.359375 2.53125 -5.828125 C 2.207031 -5.304688 2.046875 -4.597656 2.046875 -3.703125 C 2.046875 -2.816406 2.207031 -2.125 2.53125 -1.625 C 2.863281 -1.125 3.375 -0.875 4.0625 -0.875 Z M 4.0625 -0.875 "/>
</g>
<g id="glyph-0-32">
<path d="M 7.296875 -1.625 L 0.703125 -4.515625 L 0.703125 -5.21875 L 7.296875 -8.515625 L 7.296875 -7.421875 L 2.015625 -4.921875 L 7.296875 -2.71875 Z M 7.296875 -1.625 "/>
</g>
<g id="glyph-0-33">
<path d="M 0.703125 -2.71875 L 5.984375 -4.90625 L 0.703125 -7.421875 L 0.703125 -8.515625 L 7.296875 -5.21875 L 7.296875 -4.515625 L 0.703125 -1.625 Z M 0.703125 -2.71875 "/>
</g>
<g id="glyph-0-34">
<path d="M 0.5625 -3.84375 C 0.5625 -4.976562 0.722656 -6.070312 1.046875 -7.125 C 1.378906 -8.1875 1.90625 -9.144531 2.625 -10 L 3.78125 -10 C 3.125 -9.125 2.628906 -8.15625 2.296875 -7.09375 C 1.972656 -6.039062 1.8125 -4.957031 1.8125 -3.84375 C 1.8125 -2.757812 1.972656 -1.695312 2.296875 -0.65625 C 2.628906 0.375 3.117188 1.332031 3.765625 2.21875 L 2.625 2.21875 C 1.90625 1.394531 1.378906 0.460938 1.046875 -0.578125 C 0.722656 -1.617188 0.5625 -2.707031 0.5625 -3.84375 Z M 0.5625 -3.84375 "/>
</g>
<g id="glyph-0-35">
<path d="M 2.6875 -1.46875 C 2.5625 -0.976562 2.382812 -0.4375 2.15625 0.15625 C 1.925781 0.75 1.703125 1.300781 1.484375 1.8125 L 0.578125 1.8125 C 0.703125 1.28125 0.832031 0.695312 0.96875 0.0625 C 1.101562 -0.570312 1.207031 -1.132812 1.28125 -1.625 L 2.59375 -1.625 Z M 2.6875 -1.46875 "/>
</g>
<g id="glyph-0-36">
<path d="M 3.640625 -3.84375 C 3.640625 -2.707031 3.472656 -1.617188 3.140625 -0.578125 C 2.804688 0.460938 2.285156 1.394531 1.578125 2.21875 L 0.4375 2.21875 C 1.082031 1.332031 1.566406 0.375 1.890625 -0.65625 C 2.222656 -1.695312 2.390625 -2.757812 2.390625 -3.84375 C 2.390625 -4.957031 2.222656 -6.039062 1.890625 -7.09375 C 1.566406 -8.15625 1.078125 -9.125 0.421875 -10 L 1.578125 -10 C 2.285156 -9.144531 2.804688 -8.1875 3.140625 -7.125 C 3.472656 -6.070312 3.640625 -4.976562 3.640625 -3.84375 Z M 3.640625 -3.84375 "/>
</g>
<g id="glyph-0-37">
<path d="M 4 -10 C 5.3125 -10 6.265625 -9.738281 6.859375 -9.21875 C 7.453125 -8.707031 7.75 -7.988281 7.75 -7.0625 C 7.75 -6.507812 7.625 -5.988281 7.375 -5.5 C 7.132812 -5.019531 6.722656 -4.628906 6.140625 -4.328125 C 5.554688 -4.035156 4.765625 -3.890625 3.765625 -3.890625 L 2.625 -3.890625 L 2.625 0 L 1.359375 0 L 1.359375 -10 Z M 3.890625 -8.921875 L 2.625 -8.921875 L 2.625 -4.96875 L 3.625 -4.96875 C 4.570312 -4.96875 5.28125 -5.117188 5.75 -5.421875 C 6.21875 -5.734375 6.453125 -6.257812 6.453125 -7 C 6.453125 -7.644531 6.242188 -8.125 5.828125 -8.4375 C 5.421875 -8.757812 4.773438 -8.921875 3.890625 -8.921875 Z M 3.890625 -8.921875 "/>
</g>
<g id="glyph-0-38">
<path d="M 4.171875 0 L 0.5625 0 L 0.5625 -0.734375 L 1.734375 -1 L 1.734375 -8.984375 L 0.5625 -9.265625 L 0.5625 -10 L 4.171875 -10 L 4.171875 -9.265625 L 3 -8.984375 L 3 -1 L 4.171875 -0.734375 Z M 4.171875 0 "/>
</g>
<g id="glyph-0-39">
<path d="M 6.03125 0 L 0.546875 0 L 0.546875 -0.8125 L 4.578125 -6.546875 L 0.78125 -6.546875 L 0.78125 -7.5 L 5.9375 -7.5 L 5.9375 -6.578125 L 1.953125 -0.953125 L 6.03125 -0.953125 Z M 6.03125 0 "/>
</g>
<g id="glyph-0-40">
<path d="M 9.359375 -5.09375 C 9.359375 -3.40625 8.898438 -2.132812 7.984375 -1.28125 C 7.066406 -0.425781 5.785156 0 4.140625 0 L 1.359375 0 L 1.359375 -10 L 4.4375 -10 C 5.445312 -10 6.316406 -9.8125 7.046875 -9.4375 C 7.785156 -9.0625 8.351562 -8.507812 8.75 -7.78125 C 9.15625 -7.0625 9.359375 -6.164062 9.359375 -5.09375 Z M 8.03125 -5.046875 C 8.03125 -6.390625 7.703125 -7.367188 7.046875 -7.984375 C 6.390625 -8.609375 5.457031 -8.921875 4.25 -8.921875 L 2.625 -8.921875 L 2.625 -1.078125 L 3.96875 -1.078125 C 6.675781 -1.078125 8.03125 -2.398438 8.03125 -5.046875 Z M 8.03125 -5.046875 "/>
</g>
<g id="glyph-1-0">
<path d="M 6.4375 -2.25 C 6.4375 -1.519531 6.175781 -0.9375 5.65625 -0.5 C 5.144531 -0.0703125 4.351562 0.140625 3.28125 0.140625 C 2.738281 0.140625 2.257812 0.101562 1.84375 0.03125 C 1.4375 -0.03125 1.039062 -0.144531 0.65625 -0.3125 L 0.65625 -2.0625 C 1.070312 -1.863281 1.515625 -1.707031 1.984375 -1.59375 C 2.453125 -1.476562 2.863281 -1.421875 3.21875 -1.421875 C 3.644531 -1.421875 3.953125 -1.484375 4.140625 -1.609375 C 4.335938 -1.734375 4.4375 -1.894531 4.4375 -2.09375 C 4.4375 -2.238281 4.382812 -2.363281 4.28125 -2.46875 C 4.1875 -2.582031 4.015625 -2.703125 3.765625 -2.828125 C 3.523438 -2.953125 3.175781 -3.101562 2.71875 -3.28125 C 2.03125 -3.550781 1.507812 -3.847656 1.15625 -4.171875 C 0.8125 -4.503906 0.640625 -4.988281 0.640625 -5.625 C 0.640625 -6.332031 0.914062 -6.867188 1.46875 -7.234375 C 2.03125 -7.597656 2.769531 -7.78125 3.6875 -7.78125 C 4.164062 -7.78125 4.617188 -7.726562 5.046875 -7.625 C 5.484375 -7.519531 5.921875 -7.378906 6.359375 -7.203125 L 5.734375 -5.75 C 5.378906 -5.90625 5.015625 -6.035156 4.640625 -6.140625 C 4.273438 -6.242188 3.945312 -6.296875 3.65625 -6.296875 C 2.976562 -6.296875 2.640625 -6.109375 2.640625 -5.734375 C 2.640625 -5.597656 2.6875 -5.476562 2.78125 -5.375 C 2.882812 -5.28125 3.0625 -5.175781 3.3125 -5.0625 C 3.5625 -4.957031 3.910156 -4.816406 4.359375 -4.640625 C 4.816406 -4.453125 5.203125 -4.257812 5.515625 -4.0625 C 5.828125 -3.863281 6.054688 -3.617188 6.203125 -3.328125 C 6.359375 -3.046875 6.4375 -2.6875 6.4375 -2.25 Z M 6.4375 -2.25 "/>
</g>
<g id="glyph-1-1">
<path d="M 3.53125 0.140625 C 2.675781 0.140625 1.984375 -0.191406 1.453125 -0.859375 C 0.921875 -1.523438 0.65625 -2.507812 0.65625 -3.8125 C 0.65625 -5.125 0.925781 -6.113281 1.46875 -6.78125 C 2.007812 -7.445312 2.71875 -7.78125 3.59375 -7.78125 C 4.132812 -7.78125 4.570312 -7.671875 4.90625 -7.453125 C 5.25 -7.242188 5.523438 -6.976562 5.734375 -6.65625 L 5.8125 -6.65625 C 5.78125 -6.832031 5.753906 -7.070312 5.734375 -7.375 C 5.710938 -7.675781 5.703125 -7.953125 5.703125 -8.203125 L 5.703125 -10.640625 L 7.828125 -10.640625 L 7.828125 0 L 6.203125 0 L 5.78125 -1 L 5.703125 -1 C 5.503906 -0.675781 5.234375 -0.40625 4.890625 -0.1875 C 4.546875 0.03125 4.09375 0.140625 3.53125 0.140625 Z M 4.265625 -1.546875 C 4.835938 -1.546875 5.238281 -1.710938 5.46875 -2.046875 C 5.707031 -2.378906 5.832031 -2.882812 5.84375 -3.5625 L 5.84375 -3.796875 C 5.84375 -4.535156 5.726562 -5.097656 5.5 -5.484375 C 5.28125 -5.878906 4.863281 -6.078125 4.25 -6.078125 C 3.789062 -6.078125 3.429688 -5.878906 3.171875 -5.484375 C 2.921875 -5.097656 2.796875 -4.53125 2.796875 -3.78125 C 2.796875 -3.03125 2.921875 -2.46875 3.171875 -2.09375 C 3.429688 -1.726562 3.796875 -1.546875 4.265625 -1.546875 Z M 4.265625 -1.546875 "/>
</g>
</g>
</defs>
<path fill="none" stroke-width="2" stroke-linecap="butt" stroke-linejoin="round" stroke="rgb(0%, 0%, 0%)" stroke-opacity="1" stroke-miterlimit="10" d="M -0.000530872 0.00101342 L 862.659625 0.00101342 L 862.659625 505.708045 L -0.000530872 505.708045 Z M -0.000530872 0.00101342 " transform="matrix(1, 0, 0, 1, 1006.316937, 376.600549)"/>
<path fill="none" stroke-width="2" stroke-linecap="butt" stroke-linejoin="round" stroke="rgb(0%, 0%, 0%)" stroke-opacity="1" stroke-miterlimit="10" d="M -0.000530872 28.001013 L 32.999469 28.001013 L 36.999469 14.001013 L 36.999469 0.00101342 " transform="matrix(1, 0, 0, 1, 1006.316937, 376.600549)"/>
<g fill="rgb(0%, 0%, 0%)" fill-opacity="1">
<use xlink:href="#glyph-0-0" x="1010.316406" y="395.601562"/>
<use xlink:href="#glyph-0-1" x="1014.316406" y="395.601562"/>
<use xlink:href="#glyph-0-1" x="1022.316406" y="395.601562"/>
<use xlink:href="#glyph-0-2" x="1030.316406" y="395.601562"/>
</g>
<path fill="none" stroke-width="2" stroke-linecap="butt" stroke-linejoin="round" stroke="rgb(0%, 0%, 0%)" stroke-opacity="1" stroke-miterlimit="10" d="M -0.000725724 -0.000700661 L 132.003181 -0.000700661 L 132.003181 49.999299 L -0.000725724 49.999299 Z M -0.000725724 -0.000700661 Z M -0.000725724 -0.000700661 " transform="matrix(1, 0, 0, 1, 1450.637444, 413.340544)"/>
<g fill="rgb(0%, 0%, 0%)" fill-opacity="1">
<use xlink:href="#glyph-0-3" x="1457.138672" y="446.339844"/>
<use xlink:href="#glyph-0-4" x="1463.138672" y="446.339844"/>
<use xlink:href="#glyph-0-5" x="1470.138672" y="446.339844"/>
<use xlink:href="#glyph-0-6" x="1474.138672" y="446.339844"/>
<use xlink:href="#glyph-0-5" x="1478.138672" y="446.339844"/>
<use xlink:href="#glyph-0-7" x="1482.138672" y="446.339844"/>
<use xlink:href="#glyph-0-1" x="1491.138672" y="446.339844"/>
<use xlink:href="#glyph-0-8" x="1499.138672" y="446.339844"/>
<use xlink:href="#glyph-0-9" x="1507.138672" y="446.339844"/>
<use xlink:href="#glyph-0-10" x="1516.138672" y="446.339844"/>
<use xlink:href="#glyph-0-11" x="1524.138672" y="446.339844"/>
<use xlink:href="#glyph-0-12" x="1532.138672" y="446.339844"/>
<use xlink:href="#glyph-0-13" x="1541.138672" y="446.339844"/>
<use xlink:href="#glyph-0-11" x="1554.138672" y="446.339844"/>
<use xlink:href="#glyph-0-14" x="1562.138672" y="446.339844"/>
<use xlink:href="#glyph-0-15" x="1571.138672" y="446.339844"/>
</g>
<path fill="none" stroke-width="2" stroke-linecap="butt" stroke-linejoin="round" stroke="rgb(0%, 0%, 0%)" stroke-opacity="1" stroke-dasharray="7 5" stroke-miterlimit="10" d="M 66.003181 49.999299 L 66.003181 1055.932893 " transform="matrix(1, 0, 0, 1, 1450.637444, 413.340544)"/>
<path fill-rule="nonzero" fill="rgb(100%, 100%, 100%)" fill-opacity="1" stroke-width="2" stroke-linecap="butt" stroke-linejoin="round" stroke="rgb(0%, 0%, 0%)" stroke-opacity="1" stroke-miterlimit="10" d="M -3.157476 -0.00117828 L 8.842524 -0.00117828 L 8.842524 370.362103 L -3.157476 370.362103 Z M -3.157476 -0.00117828 Z M -3.157476 -0.00117828 " transform="matrix(1, 0, 0, 1, 1513.798101, 478.087116)"/>
<path fill="none" stroke-width="2" stroke-linecap="butt" stroke-linejoin="round" stroke="rgb(0%, 0%, 0%)" stroke-opacity="1" stroke-miterlimit="10" d="M 0.0000912309 0.0012153 L 127.597747 0.0012153 L 127.597747 50.001215 L 0.0000912309 50.001215 Z M 0.0000912309 0.0012153 Z M 0.0000912309 0.0012153 " transform="matrix(1, 0, 0, 1, 1012.214753, 132.334722)"/>
<g fill="rgb(0%, 0%, 0%)" fill-opacity="1">
<use xlink:href="#glyph-0-3" x="1017.512695" y="165.335938"/>
<use xlink:href="#glyph-0-14" x="1023.512695" y="165.335938"/>
<use xlink:href="#glyph-0-5" x="1032.512695" y="165.335938"/>
<use xlink:href="#glyph-0-6" x="1036.512695" y="165.335938"/>
<use xlink:href="#glyph-0-5" x="1040.512695" y="165.335938"/>
<use xlink:href="#glyph-0-7" x="1044.512695" y="165.335938"/>
<use xlink:href="#glyph-0-1" x="1053.512695" y="165.335938"/>
<use xlink:href="#glyph-0-8" x="1061.512695" y="165.335938"/>
<use xlink:href="#glyph-0-9" x="1069.512695" y="165.335938"/>
<use xlink:href="#glyph-0-16" x="1078.512695" y="165.335938"/>
<use xlink:href="#glyph-0-11" x="1089.512695" y="165.335938"/>
<use xlink:href="#glyph-0-15" x="1097.512695" y="165.335938"/>
<use xlink:href="#glyph-0-17" x="1102.512695" y="165.335938"/>
<use xlink:href="#glyph-0-1" x="1113.512695" y="165.335938"/>
<use xlink:href="#glyph-0-3" x="1121.512695" y="165.335938"/>
<use xlink:href="#glyph-0-18" x="1127.512695" y="165.335938"/>
</g>
<path fill="none" stroke-width="2" stroke-linecap="butt" stroke-linejoin="round" stroke="rgb(0%, 0%, 0%)" stroke-opacity="1" stroke-dasharray="7 5" stroke-miterlimit="10" d="M 63.796966 50.001215 L 63.796966 1336.76684 " transform="matrix(1, 0, 0, 1, 1012.214753, 132.334722)"/>
<path fill-rule="nonzero" fill="rgb(100%, 100%, 100%)" fill-opacity="1" stroke-width="2" stroke-linecap="butt" stroke-linejoin="round" stroke="rgb(0%, 0%, 0%)" stroke-opacity="1" stroke-miterlimit="10" d="M -28.062543 -0.00168387 L -16.062543 -0.00168387 L -16.062543 788.420191 L -28.062543 788.420191 Z M -28.062543 -0.00168387 Z M -28.062543 -0.00168387 " transform="matrix(1, 0, 0, 1, 1098.074261, 196.853246)"/>
<path fill-rule="nonzero" fill="rgb(100%, 100%, 100%)" fill-opacity="1" stroke-width="2" stroke-linecap="butt" stroke-linejoin="round" stroke="rgb(0%, 0%, 0%)" stroke-opacity="1" stroke-miterlimit="10" d="M -2.708245 0.000721007 L 9.291755 0.000721007 L 9.291755 387.598377 L -2.708245 387.598377 Z M -2.708245 0.000721007 Z M -2.708245 0.000721007 " transform="matrix(1, 0, 0, 1, 1072.719964, 1056.171154)"/>
<path fill-rule="nonzero" fill="rgb(100%, 100%, 100%)" fill-opacity="1" stroke-width="2" stroke-linecap="butt" stroke-linejoin="round" stroke="rgb(0%, 0%, 0%)" stroke-opacity="1" stroke-miterlimit="10" d="M -5.06981 -0.00102046 L 6.93019 -0.00102046 L 6.93019 31.502886 L -5.06981 31.502886 Z M -5.06981 -0.00102046 Z M -5.06981 -0.00102046 " transform="matrix(1, 0, 0, 1, 1081.081529, 1082.833052)"/>
<path fill="none" stroke-width="2" stroke-linecap="butt" stroke-linejoin="round" stroke="rgb(0%, 0%, 0%)" stroke-opacity="1" stroke-miterlimit="10" d="M -0.000530872 -0.00162283 L 348.573688 -0.00162283 L 348.573688 112.955408 L -0.000530872 112.955408 Z M -0.000530872 -0.00162283 " transform="matrix(1, 0, 0, 1, 1006.316937, 229.376623)"/>
<path fill="none" stroke-width="2" stroke-linecap="butt" stroke-linejoin="round" stroke="rgb(0%, 0%, 0%)" stroke-opacity="1" stroke-miterlimit="10" d="M -0.000530872 27.998377 L 32.999469 27.998377 L 36.999469 13.998377 L 36.999469 -0.00162283 " transform="matrix(1, 0, 0, 1, 1006.316937, 229.376623)"/>
<g fill="rgb(0%, 0%, 0%)" fill-opacity="1">
<use xlink:href="#glyph-0-0" x="1010.316406" y="248.375"/>
<use xlink:href="#glyph-0-1" x="1014.316406" y="248.375"/>
<use xlink:href="#glyph-0-1" x="1022.316406" y="248.375"/>
<use xlink:href="#glyph-0-2" x="1030.316406" y="248.375"/>
</g>
<path fill="none" stroke-width="2" stroke-linecap="butt" stroke-linejoin="round" stroke="rgb(0%, 0%, 0%)" stroke-opacity="1" stroke-miterlimit="10" d="M -0.00150509 -0.00134817 L 99.998495 -0.00134817 L 99.998495 49.998652 L -0.00150509 49.998652 Z M -0.00150509 -0.00134817 Z M -0.00150509 -0.00134817 " transform="matrix(1, 0, 0, 1, 1214.974161, 255.153692)"/>
<g fill="rgb(0%, 0%, 0%)" fill-opacity="1">
<use xlink:href="#glyph-0-19" x="1229.972656" y="288.152344"/>
<use xlink:href="#glyph-0-5" x="1233.972656" y="288.152344"/>
<use xlink:href="#glyph-0-6" x="1237.972656" y="288.152344"/>
<use xlink:href="#glyph-0-5" x="1241.972656" y="288.152344"/>
<use xlink:href="#glyph-0-20" x="1245.972656" y="288.152344"/>
<use xlink:href="#glyph-0-21" x="1249.972656" y="288.152344"/>
<use xlink:href="#glyph-0-14" x="1258.972656" y="288.152344"/>
<use xlink:href="#glyph-0-22" x="1267.972656" y="288.152344"/>
<use xlink:href="#glyph-0-15" x="1274.972656" y="288.152344"/>
<use xlink:href="#glyph-0-23" x="1279.972656" y="288.152344"/>
<use xlink:href="#glyph-0-1" x="1283.972656" y="288.152344"/>
<use xlink:href="#glyph-0-14" x="1291.972656" y="288.152344"/>
</g>
<path fill="none" stroke-width="2" stroke-linecap="butt" stroke-linejoin="round" stroke="rgb(0%, 0%, 0%)" stroke-opacity="1" stroke-dasharray="7 5" stroke-miterlimit="10" d="M 49.998495 49.998652 L 49.998495 1214.990839 " transform="matrix(1, 0, 0, 1, 1214.974161, 255.153692)"/>
<path fill-rule="nonzero" fill="rgb(100%, 100%, 100%)" fill-opacity="1" stroke-width="2" stroke-linecap="butt" stroke-linejoin="round" stroke="rgb(0%, 0%, 0%)" stroke-opacity="1" stroke-miterlimit="10" d="M -5.665228 0.000317077 L 6.334772 0.000317077 L 6.334772 46.972973 L -5.665228 46.972973 Z M -5.665228 0.000317077 Z M -5.665228 0.000317077 " transform="matrix(1, 0, 0, 1, 1264.637884, 918.472339)"/>
<path fill-rule="nonzero" fill="rgb(100%, 100%, 100%)" fill-opacity="1" stroke-width="2" stroke-linecap="butt" stroke-linejoin="round" stroke="rgb(0%, 0%, 0%)" stroke-opacity="1" stroke-miterlimit="10" d="M -4.189398 -0.000720521 L 7.810602 -0.000720521 L 7.810602 44.343029 L -4.189398 44.343029 Z M -4.189398 -0.000720521 Z M -4.189398 -0.000720521 " transform="matrix(1, 0, 0, 1, 1263.162054, 698.922596)"/>
<path fill-rule="nonzero" fill="rgb(100%, 100%, 100%)" fill-opacity="1" stroke-width="2" stroke-linecap="butt" stroke-linejoin="round" stroke="rgb(0%, 0%, 0%)" stroke-opacity="1" stroke-miterlimit="10" d="M -4.160711 0.0010495 L 7.839289 0.0010495 L 7.839289 42.528393 L -4.160711 42.528393 Z M -4.160711 0.0010495 Z M -4.160711 0.0010495 " transform="matrix(1, 0, 0, 1, 1263.133367, 776.600513)"/>
<path fill-rule="nonzero" fill="rgb(100%, 100%, 100%)" fill-opacity="1" stroke-width="2" stroke-linecap="butt" stroke-linejoin="round" stroke="rgb(0%, 0%, 0%)" stroke-opacity="1" stroke-miterlimit="10" d="M -4.191815 0.000278761 L 7.808185 0.000278761 L 7.808185 51.945591 L -4.191815 51.945591 Z M -4.191815 0.000278761 Z M -4.191815 0.000278761 " transform="matrix(1, 0, 0, 1, 1263.164471, 1270.433315)"/>
<path fill-rule="nonzero" fill="rgb(100%, 100%, 100%)" fill-opacity="1" stroke-width="2" stroke-linecap="butt" stroke-linejoin="round" stroke="rgb(0%, 0%, 0%)" stroke-opacity="1" stroke-miterlimit="10" d="M -4.041764 -6.16876 L 7.958236 -6.16876 L 7.958236 38.678896 L -4.041764 38.678896 Z M -4.041764 -6.16876 Z M -4.041764 -6.16876 " transform="matrix(1, 0, 0, 1, 1263.01442, 1381.207823)"/>
<path fill="none" stroke-width="2" stroke-linecap="butt" stroke-linejoin="round" stroke="rgb(0%, 0%, 0%)" stroke-opacity="1" stroke-miterlimit="10" d="M 87.998591 -0.0000491343 L 87.998591 11.999951 L 99.998591 11.999951 L 87.998591 -0.0000491343 L -0.0014093 -0.0000491343 L -0.0014093 49.999951 L 99.998591 49.999951 L 99.998591 11.999951 " transform="matrix(1, 0, 0, 1, 1136.903753, 614.312549)"/>
<g fill="rgb(0%, 0%, 0%)" fill-opacity="1">
<use xlink:href="#glyph-0-22" x="1140.902344" y="633.3125"/>
<use xlink:href="#glyph-0-8" x="1147.902344" y="633.3125"/>
<use xlink:href="#glyph-0-0" x="1155.902344" y="633.3125"/>
<use xlink:href="#glyph-0-0" x="1159.902344" y="633.3125"/>
<use xlink:href="#glyph-0-5" x="1163.902344" y="633.3125"/>
<use xlink:href="#glyph-0-15" x="1167.902344" y="633.3125"/>
<use xlink:href="#glyph-0-1" x="1172.902344" y="633.3125"/>
<use xlink:href="#glyph-0-5" x="1180.902344" y="633.3125"/>
<use xlink:href="#glyph-0-19" x="1184.902344" y="633.3125"/>
<use xlink:href="#glyph-0-24" x="1188.902344" y="633.3125"/>
<use xlink:href="#glyph-0-14" x="1193.902344" y="633.3125"/>
<use xlink:href="#glyph-0-25" x="1202.902344" y="633.3125"/>
</g>
<path fill="none" stroke-width="2" stroke-linecap="butt" stroke-linejoin="round" stroke="rgb(0%, 0%, 0%)" stroke-opacity="1" stroke-miterlimit="10" d="M 87.999811 0.00190399 L 87.999811 12.001904 L 99.999811 12.001904 L 87.999811 0.00190399 L -0.000188599 0.00190399 L -0.000188599 50.001904 L 99.999811 50.001904 L 99.999811 12.001904 " transform="matrix(1, 0, 0, 1, 1136.89472, 974.52544)"/>
<g fill="rgb(0%, 0%, 0%)" fill-opacity="1">
<use xlink:href="#glyph-0-22" x="1140.894531" y="993.527344"/>
<use xlink:href="#glyph-0-8" x="1147.894531" y="993.527344"/>
<use xlink:href="#glyph-0-0" x="1155.894531" y="993.527344"/>
<use xlink:href="#glyph-0-0" x="1159.894531" y="993.527344"/>
<use xlink:href="#glyph-0-5" x="1163.894531" y="993.527344"/>
<use xlink:href="#glyph-0-15" x="1167.894531" y="993.527344"/>
<use xlink:href="#glyph-0-1" x="1172.894531" y="993.527344"/>
<use xlink:href="#glyph-0-5" x="1180.894531" y="993.527344"/>
<use xlink:href="#glyph-0-19" x="1184.894531" y="993.527344"/>
<use xlink:href="#glyph-0-24" x="1188.894531" y="993.527344"/>
<use xlink:href="#glyph-0-18" x="1193.894531" y="993.527344"/>
<use xlink:href="#glyph-0-25" x="1200.894531" y="993.527344"/>
</g>
<path fill="none" stroke-width="2" stroke-linecap="butt" stroke-linejoin="round" stroke="rgb(0%, 0%, 0%)" stroke-opacity="1" stroke-miterlimit="10" d="M 0.000494979 0.00149151 L 381.695807 0.00149151 L 381.695807 166.942898 L 0.000494979 166.942898 Z M 0.000494979 0.00149151 " transform="matrix(1, 0, 0, 1, 1441.64013, 500.08054)"/>
<path fill="none" stroke-width="2" stroke-linecap="butt" stroke-linejoin="round" stroke="rgb(0%, 0%, 0%)" stroke-opacity="1" stroke-miterlimit="10" d="M 0.000494979 28.001492 L 33.000495 28.001492 L 37.000495 14.001492 L 37.000495 0.00149151 " transform="matrix(1, 0, 0, 1, 1441.64013, 500.08054)"/>
<g fill="rgb(0%, 0%, 0%)" fill-opacity="1">
<use xlink:href="#glyph-0-0" x="1445.640625" y="519.082031"/>
<use xlink:href="#glyph-0-1" x="1449.640625" y="519.082031"/>
<use xlink:href="#glyph-0-1" x="1457.640625" y="519.082031"/>
<use xlink:href="#glyph-0-2" x="1465.640625" y="519.082031"/>
</g>
<path fill="none" stroke-width="2" stroke-linecap="butt" stroke-linejoin="round" stroke="rgb(0%, 0%, 0%)" stroke-opacity="1" stroke-miterlimit="10" d="M -0.000636679 0.00180379 L 99.999363 0.00180379 L 99.999363 50.001804 L -0.000636679 50.001804 Z M -0.000636679 0.00180379 Z M -0.000636679 0.00180379 " transform="matrix(1, 0, 0, 1, 1689.274074, 553.404446)"/>
<g fill="rgb(0%, 0%, 0%)" fill-opacity="1">
<use xlink:href="#glyph-0-0" x="1715.273438" y="589.40625"/>
<use xlink:href="#glyph-0-5" x="1719.273438" y="589.40625"/>
<use xlink:href="#glyph-0-6" x="1723.273438" y="589.40625"/>
<use xlink:href="#glyph-0-5" x="1727.273438" y="589.40625"/>
<use xlink:href="#glyph-0-26" x="1731.273438" y="589.40625"/>
<use xlink:href="#glyph-0-8" x="1738.273438" y="589.40625"/>
<use xlink:href="#glyph-0-14" x="1746.273438" y="589.40625"/>
<use xlink:href="#glyph-0-11" x="1755.273438" y="589.40625"/>
</g>
<path fill="none" stroke-width="2" stroke-linecap="butt" stroke-linejoin="round" stroke="rgb(0%, 0%, 0%)" stroke-opacity="1" stroke-dasharray="7 5" stroke-miterlimit="10" d="M 49.999363 50.001804 L 49.999363 914.501804 " transform="matrix(1, 0, 0, 1, 1689.274074, 553.404446)"/>
<path fill="none" stroke-width="2" stroke-linecap="butt" stroke-linejoin="round" stroke="rgb(0%, 0%, 0%)" stroke-opacity="1" stroke-miterlimit="10" d="M 87.998591 0.000988463 L 87.998591 12.000988 L 99.998591 12.000988 L 87.998591 0.000988463 L -0.0014093 0.000988463 L -0.0014093 50.000988 L 99.998591 50.000988 L 99.998591 12.000988 " transform="matrix(1, 0, 0, 1, 1136.903753, 714.213855)"/>
<g fill="rgb(0%, 0%, 0%)" fill-opacity="1">
<use xlink:href="#glyph-0-22" x="1140.902344" y="733.214844"/>
<use xlink:href="#glyph-0-8" x="1147.902344" y="733.214844"/>
<use xlink:href="#glyph-0-0" x="1155.902344" y="733.214844"/>
<use xlink:href="#glyph-0-0" x="1159.902344" y="733.214844"/>
<use xlink:href="#glyph-0-5" x="1163.902344" y="733.214844"/>
<use xlink:href="#glyph-0-15" x="1167.902344" y="733.214844"/>
<use xlink:href="#glyph-0-1" x="1172.902344" y="733.214844"/>
<use xlink:href="#glyph-0-5" x="1180.902344" y="733.214844"/>
<use xlink:href="#glyph-0-19" x="1184.902344" y="733.214844"/>
<use xlink:href="#glyph-0-24" x="1188.902344" y="733.214844"/>
<use xlink:href="#glyph-0-13" x="1193.902344" y="733.214844"/>
<use xlink:href="#glyph-0-25" x="1206.902344" y="733.214844"/>
</g>
<path fill="none" stroke-width="2" stroke-linecap="butt" stroke-linejoin="round" stroke="rgb(0%, 0%, 0%)" stroke-opacity="1" stroke-miterlimit="10" d="M 0.00105398 -0.00143061 L 100.001054 -0.00143061 L 100.001054 49.998569 L 0.00105398 49.998569 Z M 0.00105398 -0.00143061 Z M 0.00105398 -0.00143061 " transform="matrix(1, 0, 0, 1, 1896.702071, 1129.618618)"/>
<g fill="rgb(0%, 0%, 0%)" fill-opacity="1">
<use xlink:href="#glyph-0-27" x="1903.703125" y="1165.617188"/>
<use xlink:href="#glyph-0-28" x="1912.703125" y="1165.617188"/>
<use xlink:href="#glyph-0-5" x="1920.703125" y="1165.617188"/>
<use xlink:href="#glyph-0-6" x="1924.703125" y="1165.617188"/>
<use xlink:href="#glyph-0-5" x="1928.703125" y="1165.617188"/>
<use xlink:href="#glyph-0-29" x="1932.703125" y="1165.617188"/>
<use xlink:href="#glyph-0-21" x="1941.703125" y="1165.617188"/>
<use xlink:href="#glyph-0-23" x="1950.703125" y="1165.617188"/>
<use xlink:href="#glyph-0-0" x="1954.703125" y="1165.617188"/>
<use xlink:href="#glyph-0-9" x="1958.703125" y="1165.617188"/>
<use xlink:href="#glyph-0-23" x="1967.703125" y="1165.617188"/>
<use xlink:href="#glyph-0-14" x="1971.703125" y="1165.617188"/>
<use xlink:href="#glyph-0-12" x="1980.703125" y="1165.617188"/>
</g>
<path fill="none" stroke-width="2" stroke-linecap="butt" stroke-linejoin="round" stroke="rgb(0%, 0%, 0%)" stroke-opacity="1" stroke-dasharray="7 5" stroke-miterlimit="10" d="M 50.001054 49.998569 L 50.001054 336.580601 " transform="matrix(1, 0, 0, 1, 1896.702071, 1129.618618)"/>
<path fill="none" stroke-width="2" stroke-linecap="butt" stroke-linejoin="round" stroke="rgb(0%, 0%, 0%)" stroke-opacity="1" stroke-miterlimit="10" d="M 0.0011 0.000330203 L 100.0011 0.000330203 L 100.0011 50.00033 L 0.0011 50.00033 Z M 0.0011 0.000330203 Z M 0.0011 0.000330203 " transform="matrix(1, 0, 0, 1, 2106.487181, 1202.425451)"/>
<g fill="rgb(0%, 0%, 0%)" fill-opacity="1">
<use xlink:href="#glyph-0-27" x="2113.488281" y="1238.425781"/>
<use xlink:href="#glyph-0-30" x="2122.488281" y="1238.425781"/>
<use xlink:href="#glyph-0-5" x="2130.488281" y="1238.425781"/>
<use xlink:href="#glyph-0-6" x="2134.488281" y="1238.425781"/>
<use xlink:href="#glyph-0-5" x="2138.488281" y="1238.425781"/>
<use xlink:href="#glyph-0-29" x="2142.488281" y="1238.425781"/>
<use xlink:href="#glyph-0-21" x="2151.488281" y="1238.425781"/>
<use xlink:href="#glyph-0-23" x="2160.488281" y="1238.425781"/>
<use xlink:href="#glyph-0-0" x="2164.488281" y="1238.425781"/>
<use xlink:href="#glyph-0-9" x="2168.488281" y="1238.425781"/>
<use xlink:href="#glyph-0-23" x="2177.488281" y="1238.425781"/>
<use xlink:href="#glyph-0-14" x="2181.488281" y="1238.425781"/>
<use xlink:href="#glyph-0-12" x="2190.488281" y="1238.425781"/>
</g>
<path fill="none" stroke-width="2" stroke-linecap="butt" stroke-linejoin="round" stroke="rgb(0%, 0%, 0%)" stroke-opacity="1" stroke-dasharray="7 5" stroke-miterlimit="10" d="M 50.0011 50.00033 L 50.0011 265.816736 " transform="matrix(1, 0, 0, 1, 2106.487181, 1202.425451)"/>
<path fill="none" stroke-width="2" stroke-linecap="butt" stroke-linejoin="round" stroke="rgb(0%, 0%, 0%)" stroke-opacity="1" stroke-miterlimit="10" d="M 87.99994 -0.000465542 L 87.99994 11.999534 L 99.99994 11.999534 L 87.99994 -0.000465542 L -0.0000595724 -0.000465542 L -0.0000595724 49.999534 L 99.99994 49.999534 L 99.99994 11.999534 " transform="matrix(1, 0, 0, 1, 1137.410216, 1297.687966)"/>
<g fill="rgb(0%, 0%, 0%)" fill-opacity="1">
<use xlink:href="#glyph-0-22" x="1141.410156" y="1316.6875"/>
<use xlink:href="#glyph-0-8" x="1148.410156" y="1316.6875"/>
<use xlink:href="#glyph-0-0" x="1156.410156" y="1316.6875"/>
<use xlink:href="#glyph-0-0" x="1160.410156" y="1316.6875"/>
<use xlink:href="#glyph-0-5" x="1164.410156" y="1316.6875"/>
<use xlink:href="#glyph-0-15" x="1168.410156" y="1316.6875"/>
<use xlink:href="#glyph-0-1" x="1173.410156" y="1316.6875"/>
<use xlink:href="#glyph-0-5" x="1181.410156" y="1316.6875"/>
<use xlink:href="#glyph-0-19" x="1185.410156" y="1316.6875"/>
<use xlink:href="#glyph-0-24" x="1189.410156" y="1316.6875"/>
<use xlink:href="#glyph-0-2" x="1194.410156" y="1316.6875"/>
<use xlink:href="#glyph-0-25" x="1203.410156" y="1316.6875"/>
</g>
<path fill="none" stroke-width="2" stroke-linecap="butt" stroke-linejoin="round" stroke="rgb(0%, 0%, 0%)" stroke-opacity="1" stroke-miterlimit="10" d="M 88.000584 -0.000758445 L 88.000584 11.999242 L 100.000584 11.999242 L 88.000584 -0.000758445 L 0.000584232 -0.000758445 L 0.000584232 49.999242 L 100.000584 49.999242 L 100.000584 11.999242 " transform="matrix(1, 0, 0, 1, 1143.46426, 1405.977321)"/>
<g fill="rgb(0%, 0%, 0%)" fill-opacity="1">
<use xlink:href="#glyph-0-22" x="1147.464844" y="1424.976562"/>
<use xlink:href="#glyph-0-8" x="1154.464844" y="1424.976562"/>
<use xlink:href="#glyph-0-0" x="1162.464844" y="1424.976562"/>
<use xlink:href="#glyph-0-0" x="1166.464844" y="1424.976562"/>
<use xlink:href="#glyph-0-5" x="1170.464844" y="1424.976562"/>
<use xlink:href="#glyph-0-15" x="1174.464844" y="1424.976562"/>
<use xlink:href="#glyph-0-1" x="1179.464844" y="1424.976562"/>
<use xlink:href="#glyph-0-5" x="1187.464844" y="1424.976562"/>
<use xlink:href="#glyph-0-19" x="1191.464844" y="1424.976562"/>
<use xlink:href="#glyph-0-24" x="1195.464844" y="1424.976562"/>
<use xlink:href="#glyph-0-31" x="1200.464844" y="1424.976562"/>
<use xlink:href="#glyph-0-25" x="1209.464844" y="1424.976562"/>
</g>
<path fill="none" stroke-width="2" stroke-linecap="butt" stroke-linejoin="round" stroke="rgb(0%, 0%, 0%)" stroke-opacity="1" stroke-dasharray="7 5" stroke-miterlimit="10" d="M 368.625726 0.000700661 L 0.000725724 0.000700661 " transform="matrix(-1, 0.000000000000000122, -0.000000000000000122, -1, 1450.637444, 438.340544)"/>
<path fill="none" stroke-width="2" stroke-linecap="butt" stroke-linejoin="round" stroke="rgb(0%, 0%, 0%)" stroke-opacity="1" stroke-miterlimit="10" d="M 15.000726 6.000701 L 0.000725724 0.000700661 L 15.000726 -5.999299 " transform="matrix(-1, 0.000000000000000122, -0.000000000000000122, -1, 1450.637444, 438.340544)"/>
<g fill="rgb(0%, 0%, 0%)" fill-opacity="1">
<use xlink:href="#glyph-0-32" x="1195.824219" y="430.339844"/>
<use xlink:href="#glyph-0-32" x="1203.824219" y="430.339844"/>
<use xlink:href="#glyph-0-22" x="1211.824219" y="430.339844"/>
<use xlink:href="#glyph-0-3" x="1218.824219" y="430.339844"/>
<use xlink:href="#glyph-0-11" x="1224.824219" y="430.339844"/>
<use xlink:href="#glyph-0-8" x="1232.824219" y="430.339844"/>
<use xlink:href="#glyph-0-15" x="1240.824219" y="430.339844"/>
<use xlink:href="#glyph-0-11" x="1245.824219" y="430.339844"/>
<use xlink:href="#glyph-0-33" x="1253.824219" y="430.339844"/>
<use xlink:href="#glyph-0-33" x="1261.824219" y="430.339844"/>
<use xlink:href="#glyph-0-34" x="1269.824219" y="430.339844"/>
<use xlink:href="#glyph-0-19" x="1274.824219" y="430.339844"/>
<use xlink:href="#glyph-0-24" x="1278.824219" y="430.339844"/>
<use xlink:href="#glyph-0-14" x="1283.824219" y="430.339844"/>
<use xlink:href="#glyph-0-25" x="1292.824219" y="430.339844"/>
<use xlink:href="#glyph-0-35" x="1297.824219" y="430.339844"/>
<use xlink:href="#glyph-0-5" x="1301.824219" y="430.339844"/>
<use xlink:href="#glyph-0-19" x="1305.824219" y="430.339844"/>
<use xlink:href="#glyph-0-24" x="1309.824219" y="430.339844"/>
<use xlink:href="#glyph-0-13" x="1314.824219" y="430.339844"/>
<use xlink:href="#glyph-0-25" x="1327.824219" y="430.339844"/>
<use xlink:href="#glyph-0-36" x="1332.824219" y="430.339844"/>
</g>
<path fill="none" stroke-width="2" stroke-linecap="butt" stroke-linejoin="round" stroke="rgb(0%, 0%, 0%)" stroke-opacity="1" stroke-miterlimit="10" d="M 239.666464 -0.000720521 L -0.00150509 -0.000720521 " transform="matrix(1, 0, 0, 1, 1270.974161, 698.922596)"/>
<path fill-rule="nonzero" fill="rgb(0%, 0%, 0%)" fill-opacity="1" stroke-width="2" stroke-linecap="butt" stroke-linejoin="round" stroke="rgb(0%, 0%, 0%)" stroke-opacity="1" stroke-miterlimit="10" d="M 14.998495 5.999279 L -0.00150509 -0.000720521 L 14.998495 -6.000721 Z M 14.998495 5.999279 " transform="matrix(1, 0, 0, 1, 1270.974161, 698.922596)"/>
<g fill="rgb(0%, 0%, 0%)" fill-opacity="1">
<use xlink:href="#glyph-0-8" x="1320.308594" y="690.921875"/>
<use xlink:href="#glyph-0-9" x="1328.308594" y="690.921875"/>
<use xlink:href="#glyph-0-9" x="1337.308594" y="690.921875"/>
<use xlink:href="#glyph-0-7" x="1346.308594" y="690.921875"/>
<use xlink:href="#glyph-0-1" x="1355.308594" y="690.921875"/>
<use xlink:href="#glyph-0-8" x="1363.308594" y="690.921875"/>
<use xlink:href="#glyph-0-9" x="1371.308594" y="690.921875"/>
<use xlink:href="#glyph-0-10" x="1380.308594" y="690.921875"/>
<use xlink:href="#glyph-0-11" x="1388.308594" y="690.921875"/>
<use xlink:href="#glyph-0-12" x="1396.308594" y="690.921875"/>
<use xlink:href="#glyph-0-13" x="1405.308594" y="690.921875"/>
<use xlink:href="#glyph-0-11" x="1418.308594" y="690.921875"/>
<use xlink:href="#glyph-0-14" x="1426.308594" y="690.921875"/>
<use xlink:href="#glyph-0-15" x="1435.308594" y="690.921875"/>
<use xlink:href="#glyph-0-34" x="1440.308594" y="690.921875"/>
<use xlink:href="#glyph-0-3" x="1444.308594" y="690.921875"/>
<use xlink:href="#glyph-0-4" x="1450.308594" y="690.921875"/>
<use xlink:href="#glyph-0-36" x="1457.308594" y="690.921875"/>
</g>
<path fill="none" stroke-width="2" stroke-linecap="butt" stroke-linejoin="round" stroke="rgb(0%, 0%, 0%)" stroke-opacity="1" stroke-miterlimit="10" d="M 239.666464 0.0010495 L -0.00150509 0.0010495 " transform="matrix(1, 0, 0, 1, 1270.974161, 776.600513)"/>
<path fill-rule="nonzero" fill="rgb(0%, 0%, 0%)" fill-opacity="1" stroke-width="2" stroke-linecap="butt" stroke-linejoin="round" stroke="rgb(0%, 0%, 0%)" stroke-opacity="1" stroke-miterlimit="10" d="M 14.998495 6.001049 L -0.00150509 0.0010495 L 14.998495 -5.998951 Z M 14.998495 6.001049 " transform="matrix(1, 0, 0, 1, 1270.974161, 776.600513)"/>
<g fill="rgb(0%, 0%, 0%)" fill-opacity="1">
<use xlink:href="#glyph-0-8" x="1320.308594" y="768.601562"/>
<use xlink:href="#glyph-0-9" x="1328.308594" y="768.601562"/>
<use xlink:href="#glyph-0-9" x="1337.308594" y="768.601562"/>
<use xlink:href="#glyph-0-7" x="1346.308594" y="768.601562"/>
<use xlink:href="#glyph-0-1" x="1355.308594" y="768.601562"/>
<use xlink:href="#glyph-0-8" x="1363.308594" y="768.601562"/>
<use xlink:href="#glyph-0-9" x="1371.308594" y="768.601562"/>
<use xlink:href="#glyph-0-10" x="1380.308594" y="768.601562"/>
<use xlink:href="#glyph-0-11" x="1388.308594" y="768.601562"/>
<use xlink:href="#glyph-0-12" x="1396.308594" y="768.601562"/>
<use xlink:href="#glyph-0-13" x="1405.308594" y="768.601562"/>
<use xlink:href="#glyph-0-11" x="1418.308594" y="768.601562"/>
<use xlink:href="#glyph-0-14" x="1426.308594" y="768.601562"/>
<use xlink:href="#glyph-0-15" x="1435.308594" y="768.601562"/>
<use xlink:href="#glyph-0-34" x="1440.308594" y="768.601562"/>
<use xlink:href="#glyph-0-3" x="1444.308594" y="768.601562"/>
<use xlink:href="#glyph-0-4" x="1450.308594" y="768.601562"/>
<use xlink:href="#glyph-0-36" x="1457.308594" y="768.601562"/>
</g>
<path fill="none" stroke-width="2" stroke-linecap="butt" stroke-linejoin="round" stroke="rgb(0%, 0%, 0%)" stroke-opacity="1" stroke-dasharray="7 5" stroke-miterlimit="10" d="M 166.633449 0.00113554 L 0.000636679 0.00113554 " transform="matrix(-1, 0.000000000000000122, -0.000000000000000122, -1, 1689.274074, 583.551917)"/>
<path fill="none" stroke-width="2" stroke-linecap="butt" stroke-linejoin="round" stroke="rgb(0%, 0%, 0%)" stroke-opacity="1" stroke-miterlimit="10" d="M 15.000637 6.001136 L 0.000636679 0.00113554 L 15.000637 -5.998864 " transform="matrix(-1, 0.000000000000000122, -0.000000000000000122, -1, 1689.274074, 583.551917)"/>
<g fill="rgb(0%, 0%, 0%)" fill-opacity="1">
<use xlink:href="#glyph-0-32" x="1558.457031" y="575.550781"/>
<use xlink:href="#glyph-0-32" x="1566.457031" y="575.550781"/>
<use xlink:href="#glyph-0-22" x="1574.457031" y="575.550781"/>
<use xlink:href="#glyph-0-3" x="1581.457031" y="575.550781"/>
<use xlink:href="#glyph-0-11" x="1587.457031" y="575.550781"/>
<use xlink:href="#glyph-0-8" x="1595.457031" y="575.550781"/>
<use xlink:href="#glyph-0-15" x="1603.457031" y="575.550781"/>
<use xlink:href="#glyph-0-11" x="1608.457031" y="575.550781"/>
<use xlink:href="#glyph-0-33" x="1616.457031" y="575.550781"/>
<use xlink:href="#glyph-0-33" x="1624.457031" y="575.550781"/>
<use xlink:href="#glyph-0-34" x="1632.457031" y="575.550781"/>
<use xlink:href="#glyph-0-3" x="1636.457031" y="575.550781"/>
<use xlink:href="#glyph-0-4" x="1642.457031" y="575.550781"/>
<use xlink:href="#glyph-0-36" x="1649.457031" y="575.550781"/>
</g>
<path fill="none" stroke-width="2" stroke-linecap="butt" stroke-linejoin="round" stroke="rgb(0%, 0%, 0%)" stroke-opacity="1" stroke-dasharray="7 5" stroke-miterlimit="10" d="M 132.962443 -0.000931993 L 0.00150509 -0.000931993 " transform="matrix(-1, 0.000000000000000122, -0.000000000000000122, -1, 1214.974161, 281.225631)"/>
<path fill="none" stroke-width="2" stroke-linecap="butt" stroke-linejoin="round" stroke="rgb(0%, 0%, 0%)" stroke-opacity="1" stroke-miterlimit="10" d="M 15.001505 5.999068 L 0.00150509 -0.000931993 L 15.001505 -6.000932 " transform="matrix(-1, 0.000000000000000122, -0.000000000000000122, -1, 1214.974161, 281.225631)"/>
<g fill="rgb(0%, 0%, 0%)" fill-opacity="1">
<use xlink:href="#glyph-0-32" x="1111.492188" y="273.226562"/>
<use xlink:href="#glyph-0-32" x="1119.492188" y="273.226562"/>
<use xlink:href="#glyph-0-22" x="1127.492188" y="273.226562"/>
<use xlink:href="#glyph-0-3" x="1134.492188" y="273.226562"/>
<use xlink:href="#glyph-0-11" x="1140.492188" y="273.226562"/>
<use xlink:href="#glyph-0-8" x="1148.492188" y="273.226562"/>
<use xlink:href="#glyph-0-15" x="1156.492188" y="273.226562"/>
<use xlink:href="#glyph-0-11" x="1161.492188" y="273.226562"/>
<use xlink:href="#glyph-0-33" x="1169.492188" y="273.226562"/>
<use xlink:href="#glyph-0-33" x="1177.492188" y="273.226562"/>
</g>
<path fill="none" stroke-width="2" stroke-linecap="butt" stroke-linejoin="round" stroke="rgb(0%, 0%, 0%)" stroke-opacity="1" stroke-miterlimit="10" d="M 176.962443 -0.000317077 L 0.00150509 -0.000317077 " transform="matrix(-1, 0.000000000000000122, -0.000000000000000122, -1, 1258.974161, 918.472339)"/>
<path fill-rule="nonzero" fill="rgb(0%, 0%, 0%)" fill-opacity="1" stroke-width="2" stroke-linecap="butt" stroke-linejoin="round" stroke="rgb(0%, 0%, 0%)" stroke-opacity="1" stroke-miterlimit="10" d="M 15.001505 5.999683 L 0.00150509 -0.000317077 L 15.001505 -6.000317 Z M 15.001505 5.999683 " transform="matrix(-1, 0.000000000000000122, -0.000000000000000122, -1, 1258.974161, 918.472339)"/>
<g fill="rgb(0%, 0%, 0%)" fill-opacity="1">
<use xlink:href="#glyph-0-8" x="1119.492188" y="910.472656"/>
<use xlink:href="#glyph-0-9" x="1127.492188" y="910.472656"/>
<use xlink:href="#glyph-0-9" x="1136.492188" y="910.472656"/>
<use xlink:href="#glyph-0-29" x="1145.492188" y="910.472656"/>
<use xlink:href="#glyph-0-21" x="1154.492188" y="910.472656"/>
<use xlink:href="#glyph-0-23" x="1163.492188" y="910.472656"/>
<use xlink:href="#glyph-0-0" x="1167.492188" y="910.472656"/>
<use xlink:href="#glyph-0-9" x="1171.492188" y="910.472656"/>
<use xlink:href="#glyph-0-23" x="1180.492188" y="910.472656"/>
<use xlink:href="#glyph-0-14" x="1184.492188" y="910.472656"/>
<use xlink:href="#glyph-0-12" x="1193.492188" y="910.472656"/>
<use xlink:href="#glyph-0-34" x="1202.492188" y="910.472656"/>
<use xlink:href="#glyph-0-17" x="1206.492188" y="910.472656"/>
<use xlink:href="#glyph-0-36" x="1217.492188" y="910.472656"/>
</g>
<path fill="none" stroke-width="2" stroke-linecap="butt" stroke-linejoin="round" stroke="rgb(0%, 0%, 0%)" stroke-opacity="1" stroke-dasharray="7 5" stroke-miterlimit="10" d="M -1.388616 -0.000293275 L 76.681696 60.1208 " transform="matrix(1, 0, 0, 1, 1238.29096, 638.801075)"/>
<path fill="none" stroke-width="2" stroke-linecap="butt" stroke-linejoin="round" stroke="rgb(0%, 0%, 0%)" stroke-opacity="1" stroke-dasharray="7 5" stroke-miterlimit="10" d="M 0.000665893 2.103344 L -20.554022 -53.951343 " transform="matrix(1, 0, 0, 1, 1190.40949, 972.423999)"/>
<path fill="none" stroke-width="2" stroke-linecap="butt" stroke-linejoin="round" stroke="rgb(0%, 0%, 0%)" stroke-opacity="1" stroke-dasharray="7 5" stroke-miterlimit="10" d="M 0.156061 0.0000729361 L 78.226374 34.613354 " transform="matrix(1, 0, 0, 1, 1236.746282, 741.988208)"/>
<path fill-rule="nonzero" fill="rgb(0%, 0%, 0%)" fill-opacity="1" d="M 829.078125 157.335938 L 833.078125 157.335938 C 833.078125 162.667969 825.078125 162.667969 825.078125 157.335938 C 825.078125 152 833.078125 152 833.078125 157.335938 "/>
<path fill="none" stroke-width="2" stroke-linecap="butt" stroke-linejoin="round" stroke="rgb(0%, 0%, 0%)" stroke-opacity="1" stroke-dasharray="7 5" stroke-miterlimit="10" d="M 183.136628 -0.0012153 L -0.0000912309 -0.0012153 " transform="matrix(-1, 0.000000000000000122, -0.000000000000000122, -1, 1012.214753, 157.334722)"/>
<path fill="none" stroke-width="2" stroke-linecap="butt" stroke-linejoin="round" stroke="rgb(0%, 0%, 0%)" stroke-opacity="1" stroke-miterlimit="10" d="M 14.999909 5.998785 L -0.0000912309 -0.0012153 L 14.999909 -6.001215 " transform="matrix(-1, 0.000000000000000122, -0.000000000000000122, -1, 1012.214753, 157.334722)"/>
<g fill="rgb(0%, 0%, 0%)" fill-opacity="1">
<use xlink:href="#glyph-0-32" x="882.144531" y="149.335938"/>
<use xlink:href="#glyph-0-22" x="890.144531" y="149.335938"/>
<use xlink:href="#glyph-0-3" x="897.144531" y="149.335938"/>
<use xlink:href="#glyph-0-11" x="903.144531" y="149.335938"/>
<use xlink:href="#glyph-0-8" x="911.144531" y="149.335938"/>
<use xlink:href="#glyph-0-15" x="919.144531" y="149.335938"/>
<use xlink:href="#glyph-0-11" x="924.144531" y="149.335938"/>
<use xlink:href="#glyph-0-33" x="932.144531" y="149.335938"/>
<use xlink:href="#glyph-0-34" x="940.144531" y="149.335938"/>
<use xlink:href="#glyph-0-17" x="944.144531" y="149.335938"/>
<use xlink:href="#glyph-0-36" x="955.144531" y="149.335938"/>
</g>
<path fill-rule="nonzero" fill="rgb(0%, 0%, 0%)" fill-opacity="1" d="M 881.039062 1056.171875 L 885.039062 1056.171875 C 885.039062 1061.503906 877.039062 1061.503906 877.039062 1056.171875 C 877.039062 1050.835938 885.039062 1050.835938 885.039062 1056.171875 "/>
<path fill="none" stroke-width="2" stroke-linecap="butt" stroke-linejoin="round" stroke="rgb(0%, 0%, 0%)" stroke-opacity="1" stroke-miterlimit="10" d="M 188.974091 -0.000721007 L 0.00143465 -0.000721007 " transform="matrix(-1, 0.000000000000000122, -0.000000000000000122, -1, 1070.013153, 1056.171154)"/>
<path fill-rule="nonzero" fill="rgb(0%, 0%, 0%)" fill-opacity="1" stroke-width="2" stroke-linecap="butt" stroke-linejoin="round" stroke="rgb(0%, 0%, 0%)" stroke-opacity="1" stroke-miterlimit="10" d="M 15.001435 5.999279 L 0.00143465 -0.000721007 L 15.001435 -6.000721 Z M 15.001435 5.999279 " transform="matrix(-1, 0.000000000000000122, -0.000000000000000122, -1, 1070.013153, 1056.171154)"/>
<g fill="rgb(0%, 0%, 0%)" fill-opacity="1">
<use xlink:href="#glyph-0-12" x="899.527344" y="1048.171875"/>
<use xlink:href="#glyph-0-11" x="908.527344" y="1048.171875"/>
<use xlink:href="#glyph-0-14" x="916.527344" y="1048.171875"/>
<use xlink:href="#glyph-0-11" x="925.527344" y="1048.171875"/>
<use xlink:href="#glyph-0-3" x="933.527344" y="1048.171875"/>
<use xlink:href="#glyph-0-8" x="939.527344" y="1048.171875"/>
<use xlink:href="#glyph-0-15" x="947.527344" y="1048.171875"/>
<use xlink:href="#glyph-0-11" x="952.527344" y="1048.171875"/>
<use xlink:href="#glyph-0-29" x="960.527344" y="1048.171875"/>
<use xlink:href="#glyph-0-21" x="969.527344" y="1048.171875"/>
<use xlink:href="#glyph-0-23" x="978.527344" y="1048.171875"/>
<use xlink:href="#glyph-0-0" x="982.527344" y="1048.171875"/>
<use xlink:href="#glyph-0-9" x="986.527344" y="1048.171875"/>
<use xlink:href="#glyph-0-23" x="995.527344" y="1048.171875"/>
<use xlink:href="#glyph-0-14" x="999.527344" y="1048.171875"/>
<use xlink:href="#glyph-0-12" x="1008.527344" y="1048.171875"/>
<use xlink:href="#glyph-0-37" x="1017.527344" y="1048.171875"/>
<use xlink:href="#glyph-0-8" x="1025.527344" y="1048.171875"/>
<use xlink:href="#glyph-0-23" x="1033.527344" y="1048.171875"/>
<use xlink:href="#glyph-0-3" x="1037.527344" y="1048.171875"/>
<use xlink:href="#glyph-0-34" x="1043.527344" y="1048.171875"/>
<use xlink:href="#glyph-0-36" x="1047.527344" y="1048.171875"/>
</g>
<path fill="none" stroke-width="2" stroke-linecap="butt" stroke-linejoin="round" stroke="rgb(0%, 0%, 0%)" stroke-opacity="1" stroke-miterlimit="10" d="M -0.00143465 -14.26399 L 39.986847 -14.26399 L 39.986847 0.00163498 L -0.00143465 0.00163498 " transform="matrix(1, 0, 0, 1, 1088.013153, 1097.096021)"/>
<path fill-rule="nonzero" fill="rgb(0%, 0%, 0%)" fill-opacity="1" stroke-width="2" stroke-linecap="butt" stroke-linejoin="round" stroke="rgb(0%, 0%, 0%)" stroke-opacity="1" stroke-miterlimit="10" d="M 14.998565 6.001635 L -0.00143465 0.00163498 L 14.998565 -5.998365 Z M 14.998565 6.001635 " transform="matrix(1, 0, 0, 1, 1088.013153, 1097.096021)"/>
<g fill="rgb(0%, 0%, 0%)" fill-opacity="1">
<use xlink:href="#glyph-0-4" x="1131" y="1094.964844"/>
<use xlink:href="#glyph-0-11" x="1138" y="1094.964844"/>
<use xlink:href="#glyph-0-0" x="1146" y="1094.964844"/>
<use xlink:href="#glyph-0-11" x="1150" y="1094.964844"/>
<use xlink:href="#glyph-0-22" x="1158" y="1094.964844"/>
<use xlink:href="#glyph-0-15" x="1165" y="1094.964844"/>
<use xlink:href="#glyph-0-7" x="1170" y="1094.964844"/>
<use xlink:href="#glyph-0-8" x="1179" y="1094.964844"/>
<use xlink:href="#glyph-0-14" x="1187" y="1094.964844"/>
<use xlink:href="#glyph-0-9" x="1196" y="1094.964844"/>
<use xlink:href="#glyph-0-1" x="1205" y="1094.964844"/>
<use xlink:href="#glyph-0-13" x="1213" y="1094.964844"/>
<use xlink:href="#glyph-0-20" x="1226" y="1094.964844"/>
<use xlink:href="#glyph-0-21" x="1230" y="1094.964844"/>
<use xlink:href="#glyph-0-14" x="1239" y="1094.964844"/>
<use xlink:href="#glyph-0-22" x="1248" y="1094.964844"/>
<use xlink:href="#glyph-0-15" x="1255" y="1094.964844"/>
<use xlink:href="#glyph-0-23" x="1260" y="1094.964844"/>
<use xlink:href="#glyph-0-1" x="1264" y="1094.964844"/>
<use xlink:href="#glyph-0-14" x="1272" y="1094.964844"/>
<use xlink:href="#glyph-0-4" x="1281" y="1094.964844"/>
<use xlink:href="#glyph-0-34" x="1288" y="1094.964844"/>
<use xlink:href="#glyph-0-36" x="1292" y="1094.964844"/>
</g>
<path fill="none" stroke-width="2" stroke-linecap="butt" stroke-linejoin="round" stroke="rgb(0%, 0%, 0%)" stroke-opacity="1" stroke-dasharray="7 5" stroke-miterlimit="10" d="M 5.998565 -16.872524 L 45.986847 -16.872524 L 45.986847 -0.00143061 L -0.00143465 -0.00143061 " transform="matrix(1, 0, 0, 1, 1082.013153, 1129.618618)"/>
<path fill="none" stroke-width="2" stroke-linecap="butt" stroke-linejoin="round" stroke="rgb(0%, 0%, 0%)" stroke-opacity="1" stroke-miterlimit="10" d="M 14.998565 5.998569 L -0.00143465 -0.00143061 L 14.998565 -6.001431 " transform="matrix(1, 0, 0, 1, 1082.013153, 1129.618618)"/>
<g fill="rgb(0%, 0%, 0%)" fill-opacity="1">
<use xlink:href="#glyph-0-19" x="1131" y="1126.183594"/>
<use xlink:href="#glyph-0-24" x="1135" y="1126.183594"/>
<use xlink:href="#glyph-0-2" x="1140" y="1126.183594"/>
<use xlink:href="#glyph-0-25" x="1149" y="1126.183594"/>
<use xlink:href="#glyph-0-35" x="1154" y="1126.183594"/>
<use xlink:href="#glyph-0-5" x="1158" y="1126.183594"/>
<use xlink:href="#glyph-0-19" x="1162" y="1126.183594"/>
<use xlink:href="#glyph-0-24" x="1166" y="1126.183594"/>
<use xlink:href="#glyph-0-31" x="1171" y="1126.183594"/>
<use xlink:href="#glyph-0-25" x="1180" y="1126.183594"/>
</g>
<path fill="none" stroke-width="2" stroke-linecap="butt" stroke-linejoin="round" stroke="rgb(0%, 0%, 0%)" stroke-opacity="1" stroke-dasharray="7 5" stroke-miterlimit="10" d="M 814.690352 0.00143061 L -0.00105398 0.00143061 " transform="matrix(-1, 0.000000000000000122, -0.000000000000000122, -1, 1896.702071, 1154.618618)"/>
<path fill="none" stroke-width="2" stroke-linecap="butt" stroke-linejoin="round" stroke="rgb(0%, 0%, 0%)" stroke-opacity="1" stroke-miterlimit="10" d="M 14.998946 6.001431 L -0.00105398 0.00143061 L 14.998946 -5.998569 " transform="matrix(-1, 0.000000000000000122, -0.000000000000000122, -1, 1896.702071, 1154.618618)"/>
<g fill="rgb(0%, 0%, 0%)" fill-opacity="1">
<use xlink:href="#glyph-0-32" x="1436.359375" y="1146.617188"/>
<use xlink:href="#glyph-0-32" x="1444.359375" y="1146.617188"/>
<use xlink:href="#glyph-0-22" x="1452.359375" y="1146.617188"/>
<use xlink:href="#glyph-0-3" x="1459.359375" y="1146.617188"/>
<use xlink:href="#glyph-0-11" x="1465.359375" y="1146.617188"/>
<use xlink:href="#glyph-0-8" x="1473.359375" y="1146.617188"/>
<use xlink:href="#glyph-0-15" x="1481.359375" y="1146.617188"/>
<use xlink:href="#glyph-0-11" x="1486.359375" y="1146.617188"/>
<use xlink:href="#glyph-0-33" x="1494.359375" y="1146.617188"/>
<use xlink:href="#glyph-0-33" x="1502.359375" y="1146.617188"/>
<use xlink:href="#glyph-0-34" x="1510.359375" y="1146.617188"/>
<use xlink:href="#glyph-0-19" x="1515.359375" y="1146.617188"/>
<use xlink:href="#glyph-0-24" x="1519.359375" y="1146.617188"/>
<use xlink:href="#glyph-0-2" x="1524.359375" y="1146.617188"/>
<use xlink:href="#glyph-0-25" x="1533.359375" y="1146.617188"/>
<use xlink:href="#glyph-0-36" x="1538.359375" y="1146.617188"/>
</g>
<path fill="none" stroke-width="2" stroke-linecap="butt" stroke-linejoin="round" stroke="rgb(0%, 0%, 0%)" stroke-opacity="1" stroke-dasharray="7 5" stroke-miterlimit="10" d="M 1024.475463 -0.000330203 L -0.0011 -0.000330203 " transform="matrix(-1, 0.000000000000000122, -0.000000000000000122, -1, 2106.487181, 1227.425451)"/>
<path fill="none" stroke-width="2" stroke-linecap="butt" stroke-linejoin="round" stroke="rgb(0%, 0%, 0%)" stroke-opacity="1" stroke-miterlimit="10" d="M 14.9989 5.99967 L -0.0011 -0.000330203 L 14.9989 -6.00033 " transform="matrix(-1, 0.000000000000000122, -0.000000000000000122, -1, 2106.487181, 1227.425451)"/>
<g fill="rgb(0%, 0%, 0%)" fill-opacity="1">
<use xlink:href="#glyph-0-32" x="1541.25" y="1219.425781"/>
<use xlink:href="#glyph-0-32" x="1549.25" y="1219.425781"/>
<use xlink:href="#glyph-0-22" x="1557.25" y="1219.425781"/>
<use xlink:href="#glyph-0-3" x="1564.25" y="1219.425781"/>
<use xlink:href="#glyph-0-11" x="1570.25" y="1219.425781"/>
<use xlink:href="#glyph-0-8" x="1578.25" y="1219.425781"/>
<use xlink:href="#glyph-0-15" x="1586.25" y="1219.425781"/>
<use xlink:href="#glyph-0-11" x="1591.25" y="1219.425781"/>
<use xlink:href="#glyph-0-33" x="1599.25" y="1219.425781"/>
<use xlink:href="#glyph-0-33" x="1607.25" y="1219.425781"/>
<use xlink:href="#glyph-0-34" x="1615.25" y="1219.425781"/>
<use xlink:href="#glyph-0-19" x="1620.25" y="1219.425781"/>
<use xlink:href="#glyph-0-24" x="1624.25" y="1219.425781"/>
<use xlink:href="#glyph-0-31" x="1629.25" y="1219.425781"/>
<use xlink:href="#glyph-0-25" x="1638.25" y="1219.425781"/>
<use xlink:href="#glyph-0-36" x="1643.25" y="1219.425781"/>
</g>
<path fill="none" stroke-width="2" stroke-linecap="butt" stroke-linejoin="round" stroke="rgb(0%, 0%, 0%)" stroke-opacity="1" stroke-miterlimit="10" d="M 176.962443 0.000443435 L 0.00150509 0.000443435 " transform="matrix(-1, 0.000000000000000122, -0.000000000000000122, -1, 1258.974161, 1272.875443)"/>
<path fill-rule="nonzero" fill="rgb(0%, 0%, 0%)" fill-opacity="1" stroke-width="2" stroke-linecap="butt" stroke-linejoin="round" stroke="rgb(0%, 0%, 0%)" stroke-opacity="1" stroke-miterlimit="10" d="M 15.001505 6.000443 L 0.00150509 0.000443435 L 15.001505 -5.999557 Z M 15.001505 6.000443 " transform="matrix(-1, 0.000000000000000122, -0.000000000000000122, -1, 1258.974161, 1272.875443)"/>
<g fill="rgb(0%, 0%, 0%)" fill-opacity="1">
<use xlink:href="#glyph-0-8" x="1116.492188" y="1264.875"/>
<use xlink:href="#glyph-0-9" x="1124.492188" y="1264.875"/>
<use xlink:href="#glyph-0-9" x="1133.492188" y="1264.875"/>
<use xlink:href="#glyph-0-29" x="1142.492188" y="1264.875"/>
<use xlink:href="#glyph-0-21" x="1151.492188" y="1264.875"/>
<use xlink:href="#glyph-0-23" x="1160.492188" y="1264.875"/>
<use xlink:href="#glyph-0-0" x="1164.492188" y="1264.875"/>
<use xlink:href="#glyph-0-9" x="1168.492188" y="1264.875"/>
<use xlink:href="#glyph-0-23" x="1177.492188" y="1264.875"/>
<use xlink:href="#glyph-0-14" x="1181.492188" y="1264.875"/>
<use xlink:href="#glyph-0-12" x="1190.492188" y="1264.875"/>
<use xlink:href="#glyph-0-34" x="1199.492188" y="1264.875"/>
<use xlink:href="#glyph-0-27" x="1203.492188" y="1264.875"/>
<use xlink:href="#glyph-0-28" x="1212.492188" y="1264.875"/>
<use xlink:href="#glyph-0-36" x="1220.492188" y="1264.875"/>
</g>
<path fill="none" stroke-width="2" stroke-linecap="butt" stroke-linejoin="round" stroke="rgb(0%, 0%, 0%)" stroke-opacity="1" stroke-dasharray="7 5" stroke-miterlimit="10" d="M 0.00116169 -0.733047 L -16.545713 -25.545547 " transform="matrix(1, 0, 0, 1, 1186.401182, 1298.420547)"/>
<path fill="none" stroke-width="2" stroke-linecap="butt" stroke-linejoin="round" stroke="rgb(0%, 0%, 0%)" stroke-opacity="1" stroke-miterlimit="10" d="M 176.962443 -0.00178197 L 0.00150509 -0.00178197 " transform="matrix(-1, 0.000000000000000122, -0.000000000000000122, -1, 1258.974161, 1376.459156)"/>
<path fill-rule="nonzero" fill="rgb(0%, 0%, 0%)" fill-opacity="1" stroke-width="2" stroke-linecap="butt" stroke-linejoin="round" stroke="rgb(0%, 0%, 0%)" stroke-opacity="1" stroke-miterlimit="10" d="M 15.001505 5.998218 L 0.00150509 -0.00178197 L 15.001505 -6.001782 Z M 15.001505 5.998218 " transform="matrix(-1, 0.000000000000000122, -0.000000000000000122, -1, 1258.974161, 1376.459156)"/>
<g fill="rgb(0%, 0%, 0%)" fill-opacity="1">
<use xlink:href="#glyph-0-8" x="1116.492188" y="1368.460938"/>
<use xlink:href="#glyph-0-9" x="1124.492188" y="1368.460938"/>
<use xlink:href="#glyph-0-9" x="1133.492188" y="1368.460938"/>
<use xlink:href="#glyph-0-29" x="1142.492188" y="1368.460938"/>
<use xlink:href="#glyph-0-21" x="1151.492188" y="1368.460938"/>
<use xlink:href="#glyph-0-23" x="1160.492188" y="1368.460938"/>
<use xlink:href="#glyph-0-0" x="1164.492188" y="1368.460938"/>
<use xlink:href="#glyph-0-9" x="1168.492188" y="1368.460938"/>
<use xlink:href="#glyph-0-23" x="1177.492188" y="1368.460938"/>
<use xlink:href="#glyph-0-14" x="1181.492188" y="1368.460938"/>
<use xlink:href="#glyph-0-12" x="1190.492188" y="1368.460938"/>
<use xlink:href="#glyph-0-34" x="1199.492188" y="1368.460938"/>
<use xlink:href="#glyph-0-27" x="1203.492188" y="1368.460938"/>
<use xlink:href="#glyph-0-30" x="1212.492188" y="1368.460938"/>
<use xlink:href="#glyph-0-36" x="1220.492188" y="1368.460938"/>
</g>
<path fill="none" stroke-width="2" stroke-linecap="butt" stroke-linejoin="round" stroke="rgb(0%, 0%, 0%)" stroke-opacity="1" stroke-dasharray="7 5" stroke-miterlimit="10" d="M -0.000253571 0.235307 L -18.578379 -29.280318 " transform="matrix(1, 0, 0, 1, 1188.433847, 1405.741256)"/>
<path fill-rule="nonzero" fill="rgb(100%, 100%, 100%)" fill-opacity="1" stroke-width="1" stroke-linecap="butt" stroke-linejoin="miter" stroke="rgb(0%, 0%, 0%)" stroke-opacity="1" stroke-miterlimit="10" d="M -1 -1 L -1 36 L 350 36 L 354 18 L 354 -1 "/>
<g fill="rgb(0%, 0%, 0%)" fill-opacity="1">
<use xlink:href="#glyph-1-0" x="8" y="23"/>
<use xlink:href="#glyph-1-1" x="15" y="23"/>
</g>
<g fill="rgb(0%, 0%, 0%)" fill-opacity="1">
<use xlink:href="#glyph-0-7" x="32" y="23"/>
<use xlink:href="#glyph-0-1" x="41" y="23"/>
<use xlink:href="#glyph-0-8" x="49" y="23"/>
<use xlink:href="#glyph-0-9" x="57" y="23"/>
<use xlink:href="#glyph-0-5" x="66" y="23"/>
<use xlink:href="#glyph-0-16" x="70" y="23"/>
<use xlink:href="#glyph-0-11" x="81" y="23"/>
<use xlink:href="#glyph-0-15" x="89" y="23"/>
<use xlink:href="#glyph-0-17" x="94" y="23"/>
<use xlink:href="#glyph-0-1" x="105" y="23"/>
<use xlink:href="#glyph-0-3" x="113" y="23"/>
<use xlink:href="#glyph-0-18" x="119" y="23"/>
<use xlink:href="#glyph-0-5" x="126" y="23"/>
<use xlink:href="#glyph-0-38" x="130" y="23"/>
<use xlink:href="#glyph-0-14" x="135" y="23"/>
<use xlink:href="#glyph-0-23" x="144" y="23"/>
<use xlink:href="#glyph-0-15" x="148" y="23"/>
<use xlink:href="#glyph-0-23" x="153" y="23"/>
<use xlink:href="#glyph-0-8" x="157" y="23"/>
<use xlink:href="#glyph-0-0" x="165" y="23"/>
<use xlink:href="#glyph-0-23" x="169" y="23"/>
<use xlink:href="#glyph-0-39" x="173" y="23"/>
<use xlink:href="#glyph-0-8" x="180" y="23"/>
<use xlink:href="#glyph-0-15" x="188" y="23"/>
<use xlink:href="#glyph-0-23" x="193" y="23"/>
<use xlink:href="#glyph-0-1" x="197" y="23"/>
<use xlink:href="#glyph-0-14" x="205" y="23"/>
<use xlink:href="#glyph-0-5" x="214" y="23"/>
<use xlink:href="#glyph-0-10" x="218" y="23"/>
<use xlink:href="#glyph-0-11" x="226" y="23"/>
<use xlink:href="#glyph-0-31" x="234" y="23"/>
<use xlink:href="#glyph-0-21" x="243" y="23"/>
<use xlink:href="#glyph-0-11" x="252" y="23"/>
<use xlink:href="#glyph-0-14" x="260" y="23"/>
<use xlink:href="#glyph-0-22" x="269" y="23"/>
<use xlink:href="#glyph-0-11" x="276" y="23"/>
<use xlink:href="#glyph-0-5" x="284" y="23"/>
<use xlink:href="#glyph-0-40" x="288" y="23"/>
<use xlink:href="#glyph-0-23" x="298" y="23"/>
<use xlink:href="#glyph-0-8" x="302" y="23"/>
<use xlink:href="#glyph-0-12" x="310" y="23"/>
<use xlink:href="#glyph-0-3" x="319" y="23"/>
<use xlink:href="#glyph-0-8" x="325" y="23"/>
<use xlink:href="#glyph-0-13" x="333" y="23"/>
</g>
</svg>
